<?xml version="1.0" encoding="utf-8"?>
<!-- Generator: Adobe Illustrator 17.1.0, SVG Export Plug-In . SVG Version: 6.00 Build 0)  -->
<!DOCTYPE svg PUBLIC "-//W3C//DTD SVG 1.1//EN" "http://www.w3.org/Graphics/SVG/1.1/DTD/svg11.dtd">
<svg version="1.1" id="Layer_1" xmlns="http://www.w3.org/2000/svg" xmlns:xlink="http://www.w3.org/1999/xlink" x="0px" y="0px"
	 viewBox="0 0 361.9 20.2" enable-background="new 0 0 361.9 20.2" xml:space="preserve">
<g>
	<path fill-rule="evenodd" clip-rule="evenodd" fill="#B2B3B3" d="M81.8,7.8c0.5-0.1,1.1-0.2,1.6-0.2c1.3-0.1,2.6-0.2,3.9-0.2
		c0.5,0,1,0.1,1.5,0.1c3-0.2,5.9-0.4,8.9-0.6c1.8-0.1,3.7-0.3,5.5-0.3c1.9-0.1,3.9-0.1,5.8-0.2c2.7-0.2,5.3-0.6,8-0.8
		c2.9-0.2,5.7-0.3,8.6-0.4c2.7-0.1,5.3-0.1,8-0.2c1.7,0,3.5,0.1,5.2,0c2.5-0.1,5.1-0.3,7.6-0.5c1.8-0.1,3.5-0.1,5.3-0.2
		c2.1-0.1,4.2-0.3,6.2-0.4c1.6-0.1,3.2-0.1,4.8-0.1c1.9,0,3.8,0.1,5.7-0.2c0.2,0,0.3-0.1,0.5,0c1.3,0.6,2.7,0.2,4.1,0.2
		c1.5,0,2.8,0.4,4.1,1.1c0.5,0.3,0.9,0.8,1.1,1.3c0.4,1.1,0.6,2.2,0.6,3.3c0,1.9-1.1,3.2-2.2,4.5c-0.3,0.4-0.9,0.7-1.5,0.8
		c-1.5,0.4-3,0.8-4.6,1.1c-0.2,0.1-0.5,0-0.7,0c-1.4-0.1-2.9-0.2-4.3-0.2c-2.3-0.1-4.5-0.2-6.8-0.3c-1.6-0.1-3.2-0.1-4.9-0.1
		c-2-0.1-3.9-0.3-5.9-0.5c-2.4-0.2-4.8-0.4-7.2-0.6c-1-0.1-2.1-0.1-3.1-0.1c-0.6,0-1.2-0.1-1.7-0.1c-1.7-0.2-3.3-0.3-5-0.5
		c-1.8-0.2-3.7-0.4-5.5-0.7c-0.3,0-0.6,0-0.9,0c-2,0-4.1-0.3-6.1-0.6c-0.9-0.2-1.8-0.2-2.8-0.3c-1.4-0.1-2.7-0.3-4.1-0.4
		c-0.9-0.1-1.9,0-2.8-0.2c-1.4-0.3-2.7,0.4-4.1,0c-0.5-0.1-1.1,0.1-1.6,0.1c-1.7-0.1-3.4-0.3-5.2-0.5c-3.3-0.4-6.7-0.7-10.1-0.7
		c-1.5,0-3.1-0.1-4.6-0.1C82.3,10.1,81.6,9.1,81.8,7.8z M96.7,8.7c0,0.1,0,0.1,0,0.2c0.7,0.1,1.3,0.3,2,0.3c2.6,0.1,5.2,0.2,7.8,0.3
		c2.1,0.1,4.2,0.3,6.3,0.3c0.8,0,1.4,0.3,2.1,0.4c1.7,0.1,3.4,0.3,5.1,0.4c0.7,0.1,1.3,0.3,1.9,0.3c3.3,0,6.5,0.3,9.8,0.8
		c0.2,0,0.5,0.1,0.7,0.1c2,0.2,3.9,0.3,5.9,0.5c0.7,0.1,1.4,0.1,2.2,0.2c1.4,0.1,2.8,0.1,4.3,0.2c2,0.2,3.9,0.4,5.9,0.5
		c1.6,0.1,3.1,0.1,4.7,0.2c1.7,0.1,3.5,0.1,5.2,0.2c2.1,0.1,4.2,0.2,6.2,0.2c1.4,0.1,2.8,0.3,4.2-0.1c0.8-0.2,1.7-0.5,2.6-0.6
		c0.8-0.2,1.4-0.6,2-1.2c1.2-1.4,1-3,0.6-4.6c-0.1-0.4-0.6-0.8-1-0.9c-0.5-0.2-1.1-0.2-1.7-0.4c-1.7-0.7-3.5-0.3-5.2-0.4
		c-2.9-0.2-5.8-0.1-8.6-0.1c-0.3,0-0.7-0.2-1-0.1c-1.1,0.4-2.3,0.2-3.4,0.3c-1.2,0.1-2.4,0.1-3.6,0.1c-0.6,0-1.2,0.2-1.8,0.2
		c-2.7,0.2-5.3,0.3-8,0.5c-0.4,0-0.8,0.2-1.1,0c-0.6-0.3-1.1-0.1-1.7,0c-0.2,0-0.4,0-0.7,0c-3.4,0-6.8,0-10.3,0
		c-1.8,0-3.6,0.3-5.4,0.4c-0.8,0.1-1.5,0-2.3,0.1c-1.2,0.1-2.3,0.2-3.5,0.3c-1.6,0.1-3.2,0.3-4.8,0.4c-1.2,0.1-2.5,0.2-3.7,0.3
		c-0.5,0-1-0.1-1.5-0.1c-1.8,0.1-3.6,0.2-5.4,0.4C99.9,8.5,98.3,8.6,96.7,8.7z"/>
	<path fill-rule="evenodd" clip-rule="evenodd" fill="#B2B3B3" d="M213.3,3.6c1.7,0,3.5-0.1,5.4-0.1c2,0,3.9,0.2,5.9,0.3
		c0.3,0,0.7,0,1,0c1.2,0.1,2.5,0.1,3.7,0.2c1.9,0.2,3.9,0.3,5.9,0.3c1.5,0,3.1,0.2,4.6,0.2c2.9,0.1,5.8,0.2,8.7,0.3
		c1.7,0.1,3.5,0.3,5.2,0.4c2.5,0.1,5.1,0.2,7.6,0.3c2,0.1,4.1,0.4,6.1,0.6c1.5,0.1,3.1,0.3,4.6,0.3c2.2,0.1,4.4,0.1,6.6,0.2
		c1.4,0.1,2.8,0.3,4.3,0.4c2,0.2,4,0.3,6,0.5c2.3,0.2,4.5,0.3,6.8,0.4c1.9,0.1,3.9,0.2,5.8,0.3c0.9,0,1.8,0.1,2.7,0.2
		c0.6,0,0.8,0.4,0.9,0.9c0.1,0.6-0.1,1.1-0.7,1.2c-0.6,0.1-1.2,0.3-1.7,0.2c-1.6-0.3-3.2,0-4.7,0.1c-2.5,0.2-5.1,0.4-7.6,0.6
		c-2.2,0.2-4.5,0.3-6.7,0.5c-1,0.1-2.1,0.2-3.1,0.4c-0.2,0-0.3,0.1-0.5,0.1c-1.6-0.4-3.1,0.2-4.7,0.1c-0.5,0-0.9,0.2-1.4,0.2
		c-0.8,0-1.6,0-2.4,0c-0.8,0-1.6,0.1-2.4,0.2c-2,0.2-4,0.5-6,0.6c-2.2,0.2-4.5,0.2-6.7,0.3c-0.9,0.1-1.7,0.3-2.6,0.4
		c-1.9,0.1-3.8,0.2-5.7,0.2c-4.9,0.1-9.9,0.2-14.8,0.1c-3.1,0-6.3-0.2-9.4-0.3c-1.3,0-2.5,0-3.8,0c-0.9,0-1.8-0.1-2.6-0.1
		c-1.3,0-2.6,0.1-3.9,0.1c-1.8,0-3.6-0.1-5-1.6c-0.2-0.3-0.4-0.6-0.6-1c-0.1-0.3-0.1-0.7-0.3-0.9c-0.6-0.6-0.5-1.4-0.4-2
		c0.1-1.7,0.8-3.3,2.2-4.5C210.7,3.6,211.9,3.3,213.3,3.6z M289.4,10c-0.2-0.2-0.3-0.2-0.3-0.2c-2.2-0.2-4.4-0.4-6.6-0.6
		c-2.4-0.2-4.8-0.3-7.2-0.5c-1.5-0.1-3.1-0.2-4.6-0.3c-1.8-0.1-3.7-0.4-5.5-0.5c-1-0.1-2.1,0-3.1-0.1c-3.5-0.2-7-0.4-10.4-0.6
		c-2.4-0.1-4.8-0.3-7.2-0.4c-2.9-0.2-5.8-0.3-8.7-0.5c-1-0.1-2.1-0.3-3.1-0.4c-1.3-0.1-2.6-0.3-3.9-0.4c-1.5-0.1-3.1,0.1-4.6,0
		c-3.4-0.3-6.9-0.2-10.3,0.1c-0.7,0-1.5,0-2.2,0.4c-0.9,0.6-1.6,1.3-1.3,2.5c0,0.1-0.1,0.3-0.1,0.4c-0.1,0.6-0.2,1.3-0.2,1.8
		c1.9,1.4,4,1.4,6,1.6c2.5,0.3,5.1,0.2,7.6,0.3c1.6,0,3.3,0,4.9,0.1c2.4,0.1,4.8,0.2,7.2,0.2c0.8,0,1.7-0.2,2.5-0.2
		c1.8,0,3.5,0.1,5.3,0.1c2.9-0.1,5.8-0.2,8.6-0.4c2.5-0.1,5-0.2,7.5-0.4c3.1-0.3,6.3-0.7,9.5-0.7c0.8,0,1.7-0.1,2.5-0.1
		c2.2-0.2,4.5-0.4,6.7-0.5c2.1-0.1,4.2-0.1,6.2-0.5c0.8-0.2,1.6-0.1,2.4-0.2C287.8,10.1,288.6,10.1,289.4,10z"/>
	<path fill-rule="evenodd" clip-rule="evenodd" fill="#B2B3B3" d="M201.8,11.5c0,2.3-1.1,4-2.8,5.3c-0.6,0.4-1.2,0.8-1.8,1.3
		c-0.9,0.7-1.9,0.9-2.9,1c-1.2,0-2.5,0-3.6-0.6c-0.4-0.2-0.9-0.5-1.3-0.7c-1.4-0.9-2.4-2.1-3-3.6c-0.2-0.6-0.6-1.1-0.9-1.6
		c-0.1-0.3-0.3-0.6-0.3-0.9c0-0.6,0-1.1-0.5-1.6c-0.1-0.1-0.2-0.3-0.2-0.5c0.3-1.4,0.3-2.8,1.1-3.9c0.8-1.1,1.7-2.2,2.8-2.9
		c0.8-0.6,2-0.8,3.1-1c2.2-0.3,4.3,0.1,6.3,1.1c0.7,0.4,1.3,1,1.7,1.7c1,1.7,1.9,3.5,2.3,5.4C201.8,10.4,201.8,11,201.8,11.5z
		 M186.5,9.7c0.2,0.5,0.4,1,0.5,1.4c0.2,0.4,0.2,0.9,0.5,1.3c0.5,0.9,1,1.8,1.6,2.5c1.4,1.4,3,2.3,5.1,1.9c1.5-0.3,2.8-1,3.9-2.2
		c0.4-0.4,0.8-0.7,1-1.2c0.4-1,0.8-2,0.5-3.1c-0.2-0.5-0.1-1-0.3-1.5c-0.3-1.3-0.9-2.5-1.7-3.6c-0.3-0.4-0.9-0.7-1.4-0.9
		c-1-0.3-2-0.5-3-0.7c-0.4-0.1-0.9,0-1.4,0.1c-1.4,0.4-2.6,0.9-3.6,2.1c-0.8,0.9-1.2,1.8-1.3,2.9C186.8,9,186.6,9.4,186.5,9.7z"/>
	<path fill-rule="evenodd" clip-rule="evenodd" fill="#B2B3B3" d="M192.6,5.1c1.2-0.1,2.1,0.4,3,1.1c0.7,0.5,1.5,0.9,1.7,1.9
		c0.3,1.3,0.4,2.6,0.2,3.9c-0.1,0.8-0.6,1.3-1.3,1.7c-1.8,1.3-3.6,1.1-5.5-0.1c-1.5-1-2.2-2.5-2.7-4c-0.2-0.5,0.1-1.2,0.2-1.8
		c0.1-0.6,0.4-1.1,0.9-1.5C190.3,5.5,191.4,5.2,192.6,5.1z M195.7,9.7c0-1-0.7-1.9-1.6-2.2c-0.7-0.2-1.3-0.1-2,0
		c-1.4,0.3-2,1.1-1.8,2.5c0.2,1.3,1,1.9,2,2.3c0.9,0.4,1.8,0.2,2.6-0.2c0.7-0.4,0.7-1,0.7-1.7C195.5,10.2,195.6,9.9,195.7,9.7z"/>
</g>
</svg>
