<?xml version="1.0" encoding="utf-8"?>
<!-- Generator: Adobe Illustrator 17.1.0, SVG Export Plug-In . SVG Version: 6.00 Build 0)  -->
<!DOCTYPE svg PUBLIC "-//W3C//DTD SVG 1.1//EN" "http://www.w3.org/Graphics/SVG/1.1/DTD/svg11.dtd">
<svg version="1.1" id="Layer_1" xmlns="http://www.w3.org/2000/svg" xmlns:xlink="http://www.w3.org/1999/xlink" x="0px" y="0px"
	 viewBox="0 0 361.9 20.2" enable-background="new 0 0 361.9 20.2" xml:space="preserve">
<g>
	<path fill-rule="evenodd" clip-rule="evenodd" fill="#B2B3B3" d="M197.8,18.7c-0.4-0.7-0.7-1.3-1-1.8c-0.4-0.8-0.8-1.7-1.1-2.5
		c-0.2-0.6-0.4-1.3,0.3-1.7c0.5-0.3,0.9-0.8,1.4-1.1c1-0.6,1.8-1.4,2.7-2.1c1.5-1.2,3-2.5,4.5-3.8c1.1-0.9,2.1-1.9,3.1-2.9
		c0.1-0.1,0.2-0.2,0.4-0.3c0.4,0.1,0.5,0.3,0.7,0.6c0.6,1.3,1,2.6,1.5,4c0.1,0.3,0.1,0.5,0.2,0.8c0,0.3,0,0.5-0.3,0.7
		c-1.1,1-2.1,2-3.2,3c-2.3,1.9-4.6,3.8-6.9,5.7C199.3,17.6,198.6,18.1,197.8,18.7z"/>
	<path fill-rule="evenodd" clip-rule="evenodd" fill="#B2B3B3" d="M264.1,14.1c0.1-0.1,0.2-0.2,0.3-0.4c0.3-0.3,0.8-0.5,0.7-1
		c0.5-0.5,0.9-1,1.4-1.4c1.4-1.1,2.9-2.1,4.3-3.3c1.8-1.6,3.7-3.2,5.6-4.8c0.2-0.2,0.4-0.4,0.7-0.6c0.2-0.2,0.5-0.1,0.6,0.1
		c0.2,0.5,0.4,1,0.7,1.6c-0.2,0.4,0.1,0.7,0.2,1.1c0.2,0.9,0.4,1.8,0.6,2.7c0.1,0.3-0.1,0.6-0.4,0.8c-0.8,0.6-1.6,1.3-2.4,1.9
		c-1.4,1.1-2.7,2.3-4,3.4c-1.3,1-2.6,2-3.9,3c-0.5,0.4-1.1,0.8-1.6,1.1c-0.3,0.2-0.6,0.4-1,0.6C264.8,17.3,264.3,15.8,264.1,14.1z"
		/>
	<path fill-rule="evenodd" clip-rule="evenodd" fill="#B2B3B3" d="M84.5,1.4c0.4,0.1,0.6,0.4,0.7,0.7c0.4,1.1,0.9,2.2,1.3,3.3
		c0.1,0.2,0.1,0.4,0.2,0.5c0.3,0.8,0.1,1.3-0.6,1.8c-1,0.8-1.8,1.7-2.7,2.6c-0.9,0.9-1.7,1.8-2.6,2.6C80,14,79,14.9,78.1,15.8
		c-0.8,0.7-1.6,1.3-2.4,2c-0.1,0.1-0.2,0.1-0.4,0.2c-0.6-0.8-1-1.7-1.4-2.5c-0.4-0.9-0.8-1.8-1.1-2.8c0.1-0.1,0.2-0.3,0.3-0.4
		c1-0.9,2-1.7,2.9-2.6c1.5-1.4,3.1-2.8,4.5-4.4c0.7-0.8,1.4-1.6,2.2-2.3c0.4-0.4,0.9-0.8,1.4-1.2C84.2,1.5,84.4,1.5,84.5,1.4z"/>
	<path fill-rule="evenodd" clip-rule="evenodd" fill="#B2B3B3" d="M112,2c0.7,0.4,0.9,1.1,1.1,1.7c0.5,1.3,1.2,2.6,1.1,4.1
		c-0.2,0.1-0.4,0.3-0.6,0.4c-0.9,0.7-1.8,1.4-2.6,2.2c-2.3,2.1-4.6,4.1-6.9,6.2c-0.4,0.4-0.9,0.8-1.6,1c-0.3-0.6-0.7-1.2-1-1.9
		c-0.4-0.8-0.7-1.6-0.9-2.4c-0.2-0.6-0.1-1.1,0.4-1.6c0.8-0.7,1.5-1.4,2.3-2.1c1.8-1.7,3.7-3.4,5.5-5c0.9-0.8,1.8-1.5,2.7-2.3
		C111.6,2.2,111.8,2.1,112,2z"/>
	<path fill-rule="evenodd" clip-rule="evenodd" fill="#B2B3B3" d="M179.9,2.3c0.2,0.3,0.4,0.5,0.5,0.7c0.4,1.2,0.9,2.4,1.3,3.6
		c0.1,0.3,0.2,0.7,0.3,1c0.1,0.5,0,0.9-0.5,1.2c-0.3,0.2-0.5,0.4-0.7,0.6c-1.7,2.1-3.8,3.8-5.9,5.4c-1.3,1-2.6,2.1-4,3.1
		c-0.2,0.2-0.5,0.3-0.8,0.5c-0.6-0.5-0.7-1.2-1.1-1.8c-0.4-0.8-0.7-1.6-1-2.4c-0.1-0.2-0.1-0.4-0.1-0.5c-0.1-0.5,0-0.8,0.4-1.2
		c1.5-1.4,3.1-2.5,4.7-3.7c2-1.4,3.6-3,5.2-4.8c0.3-0.3,0.6-0.7,0.9-1C179.4,2.6,179.6,2.5,179.9,2.3z"/>
	<path fill-rule="evenodd" clip-rule="evenodd" fill="#B2B3B3" d="M248.3,2.9c0.7,0.3,0.9,0.9,1,1.3c0.5,1.5,1.3,2.8,1.1,4.5
		c-1.3,1.2-2.6,2.5-3.8,3.8c-1.2,1.2-2.5,2.2-3.8,3.3c-1.1,0.9-2.1,1.7-3.2,2.6c-0.3,0.2-0.6,0.5-1,0.6c-0.3-0.6-0.8-1.3-1-1.9
		c-0.2-1.2-1-2.2-1-3.5c0.6-1,1.6-1.6,2.5-2.3c1.3-1,2.7-2.1,4-3.1c0.8-0.7,1.5-1.5,2.3-2.3C246.3,4.9,247.3,3.9,248.3,2.9z"/>
	<path fill-rule="evenodd" clip-rule="evenodd" fill="#B2B3B3" d="M318.3,3.2c0.5,0.3,0.8,0.5,0.6,1.1c0,0.1,0.1,0.3,0.1,0.4
		c0.3,0.9,0.7,3.6,0.7,4.5c-0.1,0.1-0.2,0.2-0.3,0.3c-1.7,0.9-3.2,2.2-4.7,3.3c-1.9,1.5-3.8,3-5.9,4.2c-0.5,0.3-1.1,0.6-1.8,0.7
		c-0.4-0.8-0.8-1.5-0.9-2.4c-0.1-0.6-0.2-1.2-0.4-1.8c-0.2-0.8,0.1-1.3,0.6-1.8c0.7-0.5,1.4-1,2.1-1.5c1.2-0.9,2.5-1.8,3.7-2.7
		c0.2-0.1,0.3-0.3,0.4-0.4c1.6-1.4,3.4-2.6,5.1-3.9C318,3.3,318.1,3.3,318.3,3.2z"/>
	<path fill-rule="evenodd" clip-rule="evenodd" fill="#B2B3B3" d="M139.3,2.5c0.2,0.4,0.5,0.6,0.5,0.9c0.2,0.8,0.7,1.6,0.9,2.4
		c0.1,0.5,0.5,0.9,0.5,1.5c0,0.4,0.1,0.7,0.2,1.1c-2.7,2.2-5.2,4.4-7.9,6.6c-0.8,0.7-1.7,1.3-2.6,1.9c-0.3,0.2-0.7,0.4-1.1,0.6
		c-0.5-0.6-0.8-1.2-1.1-1.8c-0.4-0.8-0.7-1.7-1-2.5c0-0.1-0.1-0.1-0.1-0.2c-0.2-1.1-0.3-1,0.6-1.6c1.6-0.9,2.9-2.1,4.3-3.3
		c2-1.7,4-3.4,6-5.1C138.8,2.9,139,2.8,139.3,2.5z"/>
	<path fill-rule="evenodd" clip-rule="evenodd" fill="#B2B3B3" d="M252.6,18.6c-0.8-1.6-1.3-3.1-1.6-4.7c0.2-0.2,0.4-0.4,0.6-0.7
		c0.1-0.1,0.2-0.2,0.2-0.4c0.1-0.7,0.6-1.1,1.1-1.4c0.8-0.6,1.5-1.2,2.3-1.7c1.5-1.1,2.9-2.4,4.2-3.9c0.3-0.4,0.7-0.7,1.1-1
		c0.8-0.7,1.7-1.4,2.6-2.2c0.2,0.2,0.4,0.3,0.5,0.5c0.5,1.5,1,2.9,1.4,4.5c0.1,0.6,0,1-0.5,1.4c-1.2,0.9-2.4,2-3.5,3.2
		c-1.2,1.4-2.5,2.5-3.9,3.5c-1.2,0.9-2.4,1.7-3.7,2.6C253.1,18.3,252.9,18.5,252.6,18.6z"/>
	<path fill-rule="evenodd" clip-rule="evenodd" fill="#B2B3B3" d="M303.6,3.3c0.7,0.3,0.8,0.9,0.9,1.4c0.1,0.8,0.4,1.5,0.6,2.3
		c0.2,0.7,0.4,1.5,0.2,2.2c-0.1,0.1-0.1,0.2-0.2,0.2c-2.2,1.3-4.1,3-6,4.7c-1.5,1.3-3,2.5-4.6,3.6c-0.5,0.3-1,0.6-1.5,0.9
		c-0.1-0.2-0.3-0.4-0.3-0.5c-0.2-0.9-0.8-1.8-0.9-2.7c-0.1-0.5-0.3-1-0.2-1.4c0.2-0.6,0.3-1.2,0.9-1.7c2.3-1.7,4.5-3.5,6.6-5.4
		c0.9-0.8,1.8-1.5,2.7-2.1C302.3,4.2,303,3.8,303.6,3.3z"/>
	<path fill-rule="evenodd" clip-rule="evenodd" fill="#B2B3B3" d="M101.4,7.3c-0.5,0.4-0.8,0.7-1.2,1.1c-0.2,0.2-0.3,0.3-0.5,0.4
		c-1.2,0.7-2.2,1.7-3.2,2.6c-0.7,0.6-1.5,1.2-2.2,1.8c-1.1,0.9-2.1,1.8-3.2,2.6c-0.3,0.2-0.5,0.4-0.8,0.6c-0.1-0.1-0.2-0.1-0.3-0.1
		c-0.8-1.4-1.5-2.9-2-4.5c0-0.1-0.1-0.3-0.1-0.4c-0.1-0.3,0-0.5,0.2-0.7c1.4-1.2,2.8-2.4,4.3-3.7c0.6-0.5,1.2-1,1.8-1.5
		c1.6-1.5,3.3-2.7,5-4c0.4,0.2,0.6,0.6,0.8,1c0.4,0.9,0.8,1.9,1.2,2.9C101.4,5.9,101.6,6.6,101.4,7.3z"/>
	<path fill-rule="evenodd" clip-rule="evenodd" fill="#B2B3B3" d="M212.5,18.5c-0.7-0.7-0.9-1.3-1.1-1.9c-0.4-0.8-0.7-1.6-1-2.4
		c-0.1-0.2-0.1-0.4-0.1-0.7c-0.1-0.4,0-0.7,0.3-1c1.2-1.4,2.6-2.4,4-3.6c1.4-1.2,2.7-2.3,4.1-3.5c0.9-0.8,1.7-1.5,2.6-2.3
		c0.1-0.1,0.3-0.1,0.5-0.2c0.2,0.2,0.4,0.4,0.5,0.6c0.3,1,0.8,2.1,1.2,3.1c0.3,0.7,0.5,1.4,0.4,2.1c-1.9,1.6-3.7,3.3-5.7,4.9
		C216.1,15,214.2,16.6,212.5,18.5z"/>
	<path fill-rule="evenodd" clip-rule="evenodd" fill="#B2B3B3" d="M168.3,7.6c-0.4,0.4-0.9,0.8-1.2,1.2c-0.9,1-2,1.8-3.1,2.6
		c-1.9,1.5-3.8,3.1-5.5,4.8c-0.4,0.4-0.9,0.8-1.5,1.1c-0.5-0.5-0.7-1.1-1-1.7c-0.3-0.6-0.5-1.3-0.7-1.9c-0.2-0.6-0.4-1.2-0.3-2
		c0.3-0.3,0.6-0.7,1-1.1c1.7-1.6,3.4-3.2,5.3-4.6c1.5-1.1,2.9-2.4,4.2-3.7c0.1-0.1,0.2-0.2,0.3-0.3c0.3-0.2,0.6-0.2,0.8,0.1
		c0,0.1,0.1,0.1,0.1,0.2c0.5,1.4,1,2.8,1.5,4.2C168.3,6.8,168.4,7.2,168.3,7.6z"/>
	<path fill-rule="evenodd" clip-rule="evenodd" fill="#B2B3B3" d="M195.4,8.5c-0.1,0.1-0.2,0.2-0.3,0.3c-1.5,1-2.8,2.1-4.1,3.3
		c-0.5,0.4-1,0.8-1.5,1.2c-1.5,1.1-3,2.3-4.5,3.4c-0.2,0.1-0.4,0.3-0.6,0.4c-0.7-0.8-1.1-1.8-1.5-2.7c-0.4-0.9-0.9-1.7-1.2-2.7
		c0.1-0.1,0.2-0.3,0.3-0.3c3.8-2.8,7.4-5.9,11.1-8.8c0.5,0.1,0.7,0.4,0.9,0.8c0.5,1.4,1.1,2.7,1.5,4.1
		C195.4,7.8,195.5,8.2,195.4,8.5z"/>
	<path fill-rule="evenodd" clip-rule="evenodd" fill="#B2B3B3" d="M43.5,1.9c0.1,0.3,0.2,0.4,0.3,0.5c0.4,0.9,0.9,1.7,1.2,2.7
		c0.1,0.4,0.3,0.9,0.4,1.3c0.1,0.3,0.1,0.6,0.2,0.9c0.1,0.4,0,0.7-0.4,1c-1.7,1-3.1,2.3-4.5,3.7c-1.7,1.6-3.5,3.1-5.2,4.6
		C35,17,34.5,17.2,34,17.5c-0.5-0.7-0.9-1.5-1.2-2.2c-0.3-0.8-0.5-1.6-0.5-2.5c0.1-0.1,0.3-0.4,0.6-0.6c0.2-0.2,0.3-0.3,0.3-0.6
		c0-0.2,0.1-0.5,0.3-0.6c0.8-0.8,1.6-1.6,2.5-2.4c1.4-1.2,2.6-2.5,3.9-3.7C40.9,4,42.1,3,43.5,1.9z"/>
	<path fill-rule="evenodd" clip-rule="evenodd" fill="#B2B3B3" d="M60.3,11.3c0.3-0.3,0.5-0.6,0.7-0.8c2.3-2,4.3-4.3,6.5-6.4
		c1.1-1,2.2-1.9,3.3-2.8c0.1,0,0.1,0,0.3-0.1c0.1,0.1,0.3,0.3,0.4,0.4c0.7,1.4,1.4,2.9,1.8,4.4c0,0.1,0.1,0.3,0.1,0.4
		c0,0.1,0,0.3,0,0.5c-0.6,0.5-1.2,0.9-1.8,1.4c-1.6,1.3-2.9,2.8-4.4,4.2c-1.1,1.1-2.2,2.1-3.3,3.2c-0.3,0.3-0.6,0.4-1,0.7
		c-0.7-0.8-1-1.7-1.5-2.6C61,13.2,60.6,12.3,60.3,11.3z"/>
	<path fill-rule="evenodd" clip-rule="evenodd" fill="#B2B3B3" d="M49,17.1c-0.5-0.9-0.9-1.6-1.3-2.3c-0.3-0.7-0.4-1.5-0.5-2.4
		c0.3-0.4,0.7-0.8,0.9-1.4c0.3-0.7,0.9-1.3,1.6-1.7c1.1-0.7,2.2-1.5,3.1-2.5c1.6-1.6,3.1-3.3,4.7-4.9c0.1-0.1,0.2-0.1,0.2-0.2
		c0.3,0,0.5,0.2,0.7,0.4c0.3,0.5,0.5,1,0.7,1.6c0.2,0.5,0.3,1,0.7,1.4c0.1,0.1,0.1,0.3,0.2,0.4c0.1,0.6,0.3,1.2,0.4,1.8
		C60,7.7,59.6,8,59.1,8.5c-1,1-2,2.1-3,3.1c-0.8,0.9-1.6,1.6-2.6,2.3C52.1,15,50.6,16,49,17.1z"/>
	<path fill-rule="evenodd" clip-rule="evenodd" fill="#B2B3B3" d="M289.8,3c0.6,0.5,0.7,1.2,0.9,1.7c0.4,1.4,0.9,2.7,0.9,4.3
		c-1.4,1.3-2.9,2.6-4.3,3.9c-1,0.8-2,1.5-3.1,2.2c-1.1,0.8-2.2,1.5-3.3,2.4c-0.4,0.3-0.8,0.7-1.4,0.8c-0.7-1.5-1.4-3-1.3-4.8
		c0.4-0.4,0.8-0.8,1-1.4c0.7-0.6,1.3-1.3,2-1.8c3-2,5.8-4.2,8.2-6.8C289.4,3.2,289.6,3.1,289.8,3z"/>
	<path fill-rule="evenodd" clip-rule="evenodd" fill="#B2B3B3" d="M321.3,18c-0.1-0.2-0.2-0.3-0.3-0.4c-0.4-1.3-0.9-2.6-1.1-4
		c-0.1-0.6-0.1-1.1,0.5-1.5c0.6-0.4,1.1-0.9,1.7-1.3c1.4-1.1,2.8-2.2,4.3-3.3c0.2-0.1,0.3-0.3,0.4-0.4c1.1-1,2.3-2.1,3.4-3.1
		c0.5-0.4,1-0.7,1.5-0.9c0.4,0.2,0.5,0.5,0.5,0.8c0.4,1.7,0.9,3.5,0.8,5.3c-0.5,0.3-1.1,0.6-1.6,1c-0.6,0.5-1.2,1.1-1.8,1.6
		c-0.9,0.9-1.8,1.7-2.9,2.5c-1.2,0.9-2.3,1.8-3.4,2.7c-0.4,0.3-0.9,0.6-1.4,0.9C321.8,17.9,321.6,17.9,321.3,18z"/>
	<path fill-rule="evenodd" clip-rule="evenodd" fill="#B2B3B3" d="M234.4,3.4c0.5,0.2,0.7,0.5,0.8,1c0.3,1,0.7,1.9,1,2.9
		c0.2,0.6,0.4,1.2,0.3,1.8c-1,0.9-1.8,1.8-2.7,2.6c-0.9,0.8-1.8,1.7-2.7,2.5c-0.9,0.8-1.8,1.6-2.8,2.4c-0.9,0.8-1.7,1.7-2.9,2.4
		c-0.4-0.7-0.7-1.2-1-1.9c-0.3-0.7-0.5-1.5-0.8-2.3c-0.2-0.6-0.1-1.2,0.2-1.7c0.6-0.9,1.4-1.5,2.2-2.2c2-1.6,4-3.3,5.8-5.2
		c0.6-0.6,1.3-1.3,1.9-2C234.1,3.7,234.3,3.6,234.4,3.4z"/>
	<path fill-rule="evenodd" clip-rule="evenodd" fill="#B2B3B3" d="M125.8,1.8c0.1,0.2,0.3,0.3,0.3,0.4c0.4,0.9,0.9,1.8,1.1,2.9
		c0.1,0.6,0.3,1.1,0.5,1.6c0.3,0.6,0.2,1-0.3,1.4c-0.6,0.5-1.3,1.1-1.8,1.8c-1.2,1.4-2.7,2.6-4.2,3.7c-1.3,1-2.6,2-3.9,3
		c-0.2,0.1-0.4,0.2-0.6,0.4c-0.1-0.2-0.3-0.4-0.3-0.5c-0.4-0.8-0.8-1.5-1.1-2.3c-0.3-0.8-0.6-1.6-0.8-2.4c-0.1-0.3,0-0.5,0.2-0.7
		c0.6-0.4,1.1-0.9,1.7-1.3c0.9-0.6,1.7-1.2,2.6-1.9c0.9-0.7,1.9-1.5,2.7-2.3c0.6-0.5,1-1.1,1.5-1.7c0.5-0.6,1-1.1,1.6-1.6
		C125.3,2,125.5,1.9,125.8,1.8z"/>
	<path fill-rule="evenodd" clip-rule="evenodd" fill="#B2B3B3" d="M347.4,18.5c-0.6-1.5-1.1-3-1.1-4.7c0.1-0.1,0.3-0.4,0.5-0.6
		c0.2-0.3,0.2-0.6,0.4-0.8c0.1-0.2,0.3-0.5,0.5-0.6c1.3-1.1,2.4-2.3,3.8-3.3c1.4-0.9,2.8-2,4.2-3c0.7-0.5,1.3-1.1,1.7-1.8
		c0.2-0.3,0.5-0.6,0.7-0.9c0.4,0.2,0.6,0.5,0.6,0.8c0.1,0.7,0.2,1.4,0.4,2c0.1,0.3,0.1,0.6,0.2,0.9c0.1,0.3,0.1,0.7,0.2,1
		c0.1,0.7,0,1.3-0.5,1.9c-0.9,1-1.8,1.9-2.8,2.7c-1.1,0.8-2.3,1.7-3.4,2.5c-1.4,1-2.8,2.1-4.1,3.3C348.4,18.1,348,18.4,347.4,18.5z"
		/>
	<path fill-rule="evenodd" clip-rule="evenodd" fill="#B2B3B3" d="M16.3,1c0.2,0.2,0.4,0.4,0.5,0.6c0.2,0.3,0.4,0.7,0.5,1
		c0.5,1.1,0.9,2.2,1.3,3.3c0.1,0.5,0,0.8-0.4,1.1c-1.7,1.1-3.2,2.5-4.7,3.9c-1.6,1.4-3.3,2.6-4.9,4c-0.3,0.2-0.6,0.4-1,0.7
		c-0.1-0.2-0.3-0.4-0.4-0.6c-0.7-1.2-1.2-2.4-1.7-3.6C5.2,10.5,5.4,9.9,6,9.4c1.2-1,2.5-1.9,3.7-2.9c1-0.9,2-1.8,3-2.7
		C13.8,2.8,15,1.9,16.3,1z"/>
	<path fill-rule="evenodd" clip-rule="evenodd" fill="#B2B3B3" d="M29.8,1.4c0.5,0.1,0.6,0.4,0.7,0.7c0.3,0.8,0.5,1.6,0.8,2.4
		c0.2,0.6,0.5,1.1,0.6,1.7c0.3,0.8,0.2,0.9-0.4,1.5c-1.3,1-2.5,2.2-3.8,3.4c-1.8,1.7-3.6,3.4-5.4,5.1c-0.2,0.2-0.5,0.4-0.9,0.6
		c-0.4-0.8-1-1.5-1.2-2.4c-0.2-0.6-0.5-1.2-0.7-1.8c-0.1-0.2-0.2-0.5-0.3-0.7c-0.1-0.4,0-0.7,0.2-0.9c1-1,2.1-1.9,3.1-2.9
		c1.3-1.3,2.7-2.5,4-3.8C27.7,3.3,28.7,2.3,29.8,1.4z"/>
	<path fill-rule="evenodd" clip-rule="evenodd" fill="#B2B3B3" d="M143.3,17.5c-0.3-0.6-0.7-1.2-1-1.9c-0.3-0.6-0.5-1.3-0.7-1.9
		c-0.1-0.3-0.2-0.5-0.2-0.9c0.1-0.5,0.2-0.9,0.5-1.2c0.4-0.5,0.9-0.9,1.4-1.4c1.7-1.5,3.5-3,5.3-4.6c0.9-0.8,1.7-1.7,2.6-2.6
		c0.1-0.1,0.3-0.3,0.4-0.4c0.1,0,0.3,0,0.4,0.1c0.1,0.1,0.2,0.2,0.3,0.4c0.3,0.7,0.6,1.3,0.9,2c0.2,0.4,0.3,0.7,0.4,1.1
		c0.3,0.7,0.5,1.5,0.5,2.3c-2.3,1.8-4.2,3.9-6.4,5.8c-1.1,1-2.2,1.9-3.3,2.8C144,17.2,143.7,17.4,143.3,17.5z"/>
	<path fill-rule="evenodd" clip-rule="evenodd" fill="#B2B3B3" d="M334.6,18.2c-0.7-2-1.3-3.8-1.6-5.8c0.3-0.2,0.5-0.5,0.7-0.6
		c1.1-0.8,2.2-1.5,3.3-2.2c0.5-0.4,1-0.8,1.6-1.1c0.5-0.3,0.8-0.7,1.1-1.1c0.4-0.5,0.8-1,1.2-1.5c0.8-1.1,2-1.8,3-2.7
		c0.1-0.1,0.2-0.1,0.4-0.1c0.1,0.1,0.2,0.2,0.3,0.4c0.2,0.5,0.4,0.9,0.5,1.4c0.2,1.5,0.7,2.9,0.5,4.4c-1.6,0.9-2.7,2.2-3.7,3.7
		c-0.7,1-1.5,1.8-2.6,2.4c-1.2,0.7-2.3,1.5-3.4,2.3C335.4,17.8,335.1,18.1,334.6,18.2z"/>
</g>
</svg>
