<?xml version="1.0" encoding="utf-8"?>
<!-- Generator: Adobe Illustrator 17.1.0, SVG Export Plug-In . SVG Version: 6.00 Build 0)  -->
<!DOCTYPE svg PUBLIC "-//W3C//DTD SVG 1.1//EN" "http://www.w3.org/Graphics/SVG/1.1/DTD/svg11.dtd">
<svg version="1.1" id="Layer_1" xmlns="http://www.w3.org/2000/svg" xmlns:xlink="http://www.w3.org/1999/xlink" x="0px" y="0px"
	 viewBox="0 0 169 19" enable-background="new 0 0 169 19" xml:space="preserve">
<g>
	<path fill-rule="evenodd" clip-rule="evenodd" fill="#B2B3B3" d="M33,8.5c0.2,0.1,0.3,0.2,0.5,0.3c-0.3,0.5-0.5,1-0.8,1.5
		c0,0,0,0.1-0.1,0.1c-0.3,0.1-0.7,0.2-0.8,0.4c-0.1,0.5-0.4,0.4-0.7,0.5c-0.8,0.4-1.8,0.3-2.5,0C27.9,11,26.9,11,26.5,10
		c-0.1-0.1-0.2-0.2-0.2-0.3c-0.1-0.5-0.1-1.1-0.2-1.7c-0.1-0.8,0.1-1.5,0.7-2.2C27,5.6,27.2,5.2,27.5,5c0.3-0.2,0.6-0.2,0.9-0.3
		c0.4,0,0.9-0.1,1.3-0.1C30.9,4.7,32,5,32.8,6c0,0,0.1,0.1,0.1,0.1c0.2,0.6,0.5,1.2,0.7,1.8C33.7,8.3,33.6,8.4,33,8.5z M27.4,8.8
		c0.3,0.2,0.5,0.4,0.8,0.5c0.4,0.1,0.7,0.3,1,0.5C29.5,9.9,29.8,10,30,10c0.4-0.1,0.9-0.2,1.2-0.6c0.4-0.3,0.4-0.8,0.6-1.2
		c0.1-0.2,0-0.6-0.1-0.8c-0.5-0.7-1.3-1.1-2.2-1.2c-0.4,0-0.8,0.1-1.2,0.3c-0.1,0-0.2,0.2-0.3,0.3c-0.1,0.5-0.6,0.9-0.4,1.4
		C27.7,8.3,27.5,8.5,27.4,8.8z"/>
	<path fill-rule="evenodd" clip-rule="evenodd" fill="#B2B3B3" d="M134.8,9.7c0.2-0.1,0.4-0.2,0.4-0.2c0-0.2-0.1-0.5,0-0.5
		c0.3-0.2,0.7-0.3,0.7-0.8c0.5,0,0.6-0.7,1.1-0.6c0.1,0,0.3-0.1,0.4-0.1c1.1-0.7,2.2-0.3,3.2,0.2c0.4,0.2,0.7,0.3,0.8,0.7
		c0.6,0.1,0.7,0.5,0.8,0.9c0.1,0.4,0.2,0.8,0.3,1.2c0,0.2-0.1,0.4-0.2,0.6c-0.1,0.2-0.3,0.4-0.4,0.7c-0.1,0.9-0.6,1.4-1.3,1.8
		c-0.5,0.3-0.8,0.7-1.4,0.8c-1.1,0.1-2.1-0.1-3-0.8c-0.5-0.4-0.8-1.1-1.2-1.7l-0.1-1.1C134.8,10.4,134.8,10,134.8,9.7z M140.8,10.9
		c-0.1-0.2-0.2-0.3-0.2-0.5c0-0.5-0.3-0.8-0.7-1.1c-0.5-0.5-1.1-0.6-1.7-0.7c-0.7-0.1-1.3,0.3-1.5,0.9c-0.1,0.3-0.3,0.7-0.4,1
		c-0.2,0-0.3-0.1-0.5-0.1c0,0.5,0.2,0.5,0.7,0.4c-0.6,0.6,0.4,0.7,0.1,1.2c0.8,0,1.4,0.4,1.8,0.8C139.9,12.8,140.1,11.5,140.8,10.9z
		"/>
	<path fill-rule="evenodd" clip-rule="evenodd" fill="#B2B3B3" d="M86.4,12.7c-0.3-0.2-0.5-0.4-0.7,0.1c0,0.1-0.4,0.3-0.5,0.2
		c-0.4-0.1-0.7-0.2-1.1-0.2c-0.3,0-0.6-0.2-0.8-0.4c-0.6-0.4-1.4-1.2-1.6-1.9c0-0.1-0.1-0.2-0.2-0.3c-0.6-0.7-0.6-1.6,0.1-2.3
		c0.2-0.2,0.4-0.5,0.7-0.7C82.3,7.2,82.6,7,82.8,7c1.1-0.1,2.1-0.4,3.2-0.1c1.2,0.3,2.2,1.3,2.3,2.5c0,0.3-0.1,0.5-0.1,0.8
		c0,0.2,0,0.4-0.1,0.5C87.9,11.7,87.4,12.4,86.4,12.7z M82.7,9.2c0.4,0.2,0.3,0.8,0.7,1c0.3,0.1,0.6,0.2,0.8,0.4
		c0.2,0.3,0.4,0.6,0.7,0.8c0.8,0.3,1.7-0.5,1.6-1.4c0-0.6-0.4-0.9-0.8-1.2c-0.3-0.2-0.7-0.3-1.1-0.3C84,8.5,83.2,8.5,82.7,9.2z
		 M87.5,10c0,0,0.1,0.1,0.1,0.1c0.1-0.1,0.2-0.1,0.3-0.2c0,0-0.1-0.1-0.1-0.1C87.7,9.8,87.6,9.9,87.5,10z"/>
</g>
</svg>
