<?xml version="1.0" encoding="utf-8"?>
<!-- Generator: Adobe Illustrator 17.1.0, SVG Export Plug-In . SVG Version: 6.00 Build 0)  -->
<!DOCTYPE svg PUBLIC "-//W3C//DTD SVG 1.1//EN" "http://www.w3.org/Graphics/SVG/1.1/DTD/svg11.dtd">
<svg version="1.1" id="Layer_1" xmlns="http://www.w3.org/2000/svg" xmlns:xlink="http://www.w3.org/1999/xlink" x="0px" y="0px"
	 viewBox="0 0 361.9 20.2" enable-background="new 0 0 361.9 20.2" xml:space="preserve">
<g>
	<path fill-rule="evenodd" clip-rule="evenodd" fill="#B2B3B3" d="M250,10.9c0-0.8-0.1-1.4-0.1-2.1c0-1.1,0-2.2,0-3.4
		c0-0.9,0.1-1,1-1c1.5-0.1,2.9-0.1,4.4-0.2c1,0,2-0.1,3-0.1c1,0,2,0.1,3,0.2c1.1,0.1,2.2,0.2,3.2,0.4c0.6,0.1,0.9,0.4,0.8,1
		c-0.1,0.8-0.2,1.7-0.3,2.5c-0.1,0.8-0.4,1.5-0.8,2.2c-0.3,0.5-0.6,0.7-1.2,0.6c-1.6-0.2-3.2-0.4-4.8-0.5c-1-0.1-1.9,0-2.9,0.1
		c-1.5,0-3.1,0-4.6,0.2C250.5,11,250.3,11,250,10.9z"/>
	<path fill-rule="evenodd" clip-rule="evenodd" fill="#B2B3B3" d="M113.5,10.7c0.1,0.1,0.1,0.1,0.2,0.2c0.1,1.1,0.2,2.1,0.1,3.2
		c-0.1,0.6-0.2,1.2-0.3,1.8c0,0.2-0.1,0.5-0.2,0.7c-0.1,0.4-0.3,0.6-0.8,0.5c-0.7,0-1.3-0.1-2-0.1c-0.8,0-1.5,0-2.3,0
		c-0.5,0-1,0-1.5,0c-1.8-0.1-3.6,0-5.4,0.2c-0.8,0.1-1.5,0.1-2.4,0.2c-0.1-0.1-0.1-0.3-0.2-0.5c0-0.2-0.1-0.5-0.1-0.7
		c0-1.6,0-3.2,0-4.9c0.2-0.1,0.5-0.2,0.7-0.3c0.3-0.1,0.5-0.1,0.8-0.1c2.4-0.2,4.8-0.5,7.2-0.4c1.4,0.1,2.7,0,4.1,0
		C112.2,10.6,112.9,10.6,113.5,10.7z"/>
	<path fill-rule="evenodd" clip-rule="evenodd" fill="#B2B3B3" d="M277.9,10.5c0-0.2-0.1-0.3-0.1-0.5c0-0.4-0.1-0.8-0.1-1.2
		c0.1-1.2,0.1-2.4,0.2-3.6c0-0.3,0.1-0.6,0.1-0.9c0.1-0.1,0.3-0.2,0.4-0.1c1.6,0.1,3.2-0.1,4.7-0.2c1.7,0,3.5-0.1,5.2,0.1
		c0.9,0.1,1.8,0.1,2.7,0.2c0.5,0,0.9,0.1,1.4,0.2c0.5,0.1,0.6,0.3,0.6,0.8c0,0.5,0,0.9-0.1,1.4c-0.2,1.1-0.3,2.2-0.5,3.3
		c0,0.2-0.1,0.4-0.2,0.7c-0.1,0.3-0.3,0.4-0.7,0.3c-1.8-0.5-3.8-0.5-5.6-0.6c-1.4-0.1-2.8,0.1-4.2,0.1c-1.2,0-2.4,0.1-3.6,0.1
		C278.1,10.6,278,10.6,277.9,10.5z"/>
	<path fill-rule="evenodd" clip-rule="evenodd" fill="#B2B3B3" d="M126.2,17.2c-0.2-1.5-0.2-5.2,0-6.1c0.2,0,0.4-0.1,0.6-0.1
		c2.1,0.2,4.2,0,6.3,0c2.2,0,4.5,0,6.7,0.1c1.1,0,1.5,0.1,1.5,1.6c0,0.3-0.1,0.6-0.1,0.9c0,0.6-0.2,1.2-0.2,1.8c0,0.8-0.4,1.5-1,2.1
		c-0.6,0.2-1.3,0.1-1.9,0c-1.5-0.2-2.9-0.1-4.4-0.1c-2,0-4,0-5.9,0C127.3,17.4,126.8,17.5,126.2,17.2z"/>
	<path fill-rule="evenodd" clip-rule="evenodd" fill="#B2B3B3" d="M16.1,8.7c-1.3,0.1-2.6,0.1-3.9-0.1C11,8.5,9.9,8.4,8.7,8.4
		C7,8.4,5.3,8.3,3.6,8.3c-0.1,0-0.2,0-0.2,0C2.5,8.2,2.3,7.9,2.2,7C2.1,5.8,2.1,4.5,2,3.3c0-0.3-0.1-0.7-0.1-1
		c0-0.4,0.2-0.7,0.6-0.6C4.9,2.2,7.3,1.9,9.6,2c0.8,0,1.7,0.1,2.5,0.2c1.1,0.1,2.2,0.1,3.2,0.1c0.1,0,0.2,0,0.3,0
		c0.8,0,1.1,0.4,1.1,1.2c0,0.4-0.1,0.8,0,1.1c0.1,1-0.1,2-0.3,3C16.4,7.9,16.2,8.3,16.1,8.7z"/>
	<path fill-rule="evenodd" clip-rule="evenodd" fill="#B2B3B3" d="M71.4,8.8c-1.7-0.1-3.3-0.2-4.9-0.3c-1.5,0-3,0.1-4.5,0.1
		c-1.4,0-2.8,0-4.2-0.2c-0.1-0.3-0.2-0.5-0.2-0.8c0-1.6-0.1-3.2-0.1-4.7c0-0.1,0-0.2,0-0.2C57.5,2.2,57.8,2,58.3,2
		c0.7,0,1.3,0.2,2,0.2c1.6,0,3.2-0.1,4.7-0.1c1,0,2.1,0,3.1,0.1c0.9,0,1.8,0,2.7,0.1c1,0.1,1.4,0,1.4,1.4c0,1,0,2.1-0.1,3.1
		C72,7.4,71.8,8.1,71.4,8.8z"/>
	<path fill-rule="evenodd" clip-rule="evenodd" fill="#B2B3B3" d="M140.8,9.8c0-1-0.3-1.8-0.2-2.7c0.1-0.8,0-1.5-0.1-2.3
		c0-0.2,0-0.5,0-0.7c0-0.4,0.2-0.6,0.6-0.6c0.4-0.1,0.8-0.1,1.2-0.1c3.6,0,7.1,0,10.7,0c0.4,0,0.8,0.1,1.3,0.1
		c0.4,0,0.7,0.2,0.8,0.6c0.2,0.5,0.3,0.9,0.3,1.5c-0.1,0.6-0.1,1.3,0,2c0,0.5-0.1,1-0.3,1.5c-0.2,0.3-0.4,0.7-0.6,1.1
		c-1.5-0.2-3-0.2-4.5-0.2c-1.5,0-2.9,0-4.4-0.1C144,9.8,142.5,9.8,140.8,9.8z"/>
	<path fill-rule="evenodd" clip-rule="evenodd" fill="#B2B3B3" d="M250.1,12c0.3,1,0.3,2,0.2,2.9c-0.1,0.4-0.1,0.8-0.1,1.3
		c0,0.6-0.1,1.2-0.4,1.8c-0.2,0.3-0.4,0.5-0.7,0.4c-0.2,0-0.4,0-0.6-0.1c-2.8-0.4-5.6-0.4-8.3-0.7c-1-0.1-2,0-3-0.1
		c-0.3,0-0.6-0.1-0.9-0.1c-0.4-0.6-0.3-1.3-0.4-2c0-1.2,0-2.3-0.1-3.5c0-0.2,0-0.4,0-0.6c0-0.3,0.2-0.4,0.5-0.4c0,0,0.1,0,0.1,0
		c2.2,0.1,4.3,0.2,6.5,0.4c2.2,0.1,4.3,0.3,6.5,0.5C249.6,11.9,249.8,12,250.1,12z"/>
	<path fill-rule="evenodd" clip-rule="evenodd" fill="#B2B3B3" d="M305.8,11.3c0-0.7-0.1-1.3-0.1-1.9c0-1.1,0-2.2,0-3.4
		c0-0.2,0-0.3,0-0.5c0-0.3,0.2-0.4,0.5-0.4c1.3,0.1,2.7-0.1,4,0.2c0.2,0,0.5,0.1,0.7,0.1c2.5,0,5,0.4,7.5,0.3c0.2,0,0.5,0,0.7,0
		c0.7,0,1,0.3,1.1,1c0,0.3,0.1,0.5,0,0.8c-0.1,1.1-0.2,2.1-0.4,3.2c-0.1,0.4-0.3,0.9-0.6,1.2c-0.1,0.1-0.3,0.2-0.5,0.2
		c-1.5,0-2.9,0.1-4.4-0.1c-0.6-0.1-1.2-0.1-1.7-0.1c-1.4-0.1-2.8-0.2-4.2-0.3c-0.5,0-0.9,0-1.4-0.1
		C306.7,11.6,306.3,11.6,305.8,11.3z"/>
	<path fill-rule="evenodd" clip-rule="evenodd" fill="#B2B3B3" d="M44,10.4c0.2,0,0.3-0.1,0.5-0.1c1.8,0.2,3.5-0.1,5.2-0.3
		c2.7-0.3,5.5-0.4,8.2,0.1c0.1,0,0.1,0.1,0.3,0.1c0.1,0.3,0.2,0.6,0.2,1c-0.1,1.5-0.1,3-0.4,4.5c0,0.2-0.1,0.3-0.1,0.4
		c-0.1,0.3-0.3,0.5-0.6,0.4c-0.4,0-0.8-0.1-1.2-0.2c-1.4-0.3-2.8-0.2-4.2-0.1c-1.8,0.1-3.5,0.3-5.3,0.5c-0.3,0-0.7,0.1-1,0.1
		c-0.5,0-0.9-0.1-1.4-0.2c-0.3-0.6-0.2-1.2-0.3-1.8c-0.1-1.3,0-2.6,0-3.9C43.8,10.7,43.9,10.5,44,10.4z"/>
	<path fill-rule="evenodd" clip-rule="evenodd" fill="#B2B3B3" d="M305.8,13c0.3,0.5,0.3,0.9,0.2,1.3c-0.1,0.8-0.2,1.7-0.3,2.5
		c-0.1,0.6-0.2,1.3-0.3,1.9c-0.1,0.2-0.2,0.5-0.4,0.8c-0.3,0-0.6,0-0.9-0.1c-1.2-0.3-2.5-0.5-3.8-0.5c-0.8,0-1.6-0.1-2.4-0.2
		c-0.9-0.1-1.9-0.1-2.8,0c-0.8,0.1-1.5,0.1-2.3,0.2c-0.4,0-0.8-0.1-1.2-0.1c-0.1-0.3-0.2-0.6-0.2-0.9c0-1.5,0.1-3.1,0.1-4.6
		c0-0.1,0-0.2,0-0.2c0.1-0.4,0.3-0.6,0.7-0.6c0.5,0,1,0.2,1.5,0.1c2.2-0.3,4.3-0.3,6.5-0.1c0.5,0,1,0,1.5,0
		C303.2,12.6,304.5,12.9,305.8,13z"/>
	<path fill-rule="evenodd" clip-rule="evenodd" fill="#B2B3B3" d="M71.5,16.3c-0.1-0.8-0.1-1.5-0.1-2.1c0-1.1,0-2.2,0.1-3.2
		c0-0.2,0-0.3,0-0.5c0.1-0.4,0.3-0.5,0.6-0.5c1.5,0,2.9,0,4.4-0.1c1,0,2.1-0.1,3.1-0.1c1.3,0,2.6,0.1,3.9,0.2c0.6,0,1.2,0.1,1.8,0.3
		c0,0.2,0.1,0.4,0.1,0.6c0,1.4,0,2.8-0.2,4.2c-0.1,0.6-0.2,1-0.6,1.6c-2.2-0.1-4.4-0.2-6.6-0.3C76,16.1,73.8,16.4,71.5,16.3z"/>
	<path fill-rule="evenodd" clip-rule="evenodd" fill="#B2B3B3" d="M154.6,18c-0.4-0.7-0.3-1.3-0.3-1.9c0-1.4-0.2-2.9,0.1-4.2
		c0.2-0.1,0.2-0.1,0.3-0.1c1.9-0.1,3.9-0.2,5.8-0.2c1.2,0,2.5,0.1,3.7,0.1c0.7,0,1.4,0,2.1,0c0.3,0,0.7,0,1,0
		c0.8,0.1,1.4,0.7,1.3,1.5c0,1-0.2,2.1-0.3,3.1c-0.1,0.8-0.5,1.4-1,2c-2.5-0.3-5-0.2-7.5-0.3c-0.8,0-1.5,0-2.3,0.1
		c-0.7,0.1-1.4,0.1-2.1,0.1C155.2,18,154.9,18,154.6,18z"/>
	<path fill-rule="evenodd" clip-rule="evenodd" fill="#B2B3B3" d="M29.7,16c-0.4,0-0.7,0-1-0.1c-1.7-0.3-3.3-0.2-5-0.1
		c-1.7,0.1-3.5,0.3-5.2,0.4c-0.7,0-1.4,0.1-2.1-0.1c-0.1-0.2-0.2-0.4-0.2-0.7c-0.1-1.8-0.3-3.6-0.3-5.5c0.3-0.1,0.5-0.2,0.7-0.1
		c0.7,0.1,1.5,0,2.2,0c2.2-0.2,4.3-0.4,6.5-0.4c1.3,0,2.7-0.1,4,0.2c0.2,0,0.4,0.1,0.6,0.2c0.3,0.5,0.3,0.9,0.2,1.4
		c-0.1,1.2-0.1,2.4-0.1,3.6C30.2,15.1,30.1,15.5,29.7,16z"/>
	<path fill-rule="evenodd" clip-rule="evenodd" fill="#B2B3B3" d="M125.6,9.1c-2.2-0.2-4.3-0.6-6.4-0.5c-2.1,0.1-4.2,0.2-6.3,0.3
		c-0.1-0.2-0.2-0.4-0.2-0.6c0-1.8,0-3.5,0-5.3c0-0.1,0.1-0.3,0.2-0.4c0.1,0,0.3-0.1,0.4-0.1c2.4-0.1,4.7-0.2,7.1-0.3
		c0.9,0,1.8,0.1,2.7,0.2c0.8,0,1.5,0.1,2.3,0.1c0.7,0,1,0.1,1.1,0.9c0.1,0.4,0.1,0.8,0.1,1.3c0,0.7,0,1.4-0.1,2.1
		C126.4,7.5,126.1,8.3,125.6,9.1z"/>
	<path fill-rule="evenodd" clip-rule="evenodd" fill="#B2B3B3" d="M347.1,13c0.2-0.1,0.2-0.2,0.3-0.2c2-0.1,3.9-0.5,5.9-0.3
		c0.5,0,0.9,0.1,1.4,0.2c1.7,0.2,3.3,0.4,5,0.3c0.1,0,0.2,0,0.3,0c0.4,0,0.6,0.2,0.7,0.6c0.2,0.7,0.2,1.4,0.2,2.1
		c-0.1,0.8-0.2,1.6-0.3,2.4c-0.1,0.5-0.1,0.9-0.5,1.3c-0.6,0.2-1.3,0.1-2,0.1c-1.3-0.1-2.7-0.3-4-0.4c-1.5-0.1-2.9-0.2-4.4,0
		c-0.8,0.1-1.5,0.2-2.3,0.1c-0.3-1.1-0.3-2.2-0.3-3.2C347,14.9,346.8,13.9,347.1,13z"/>
	<path fill-rule="evenodd" clip-rule="evenodd" fill="#B2B3B3" d="M167.8,9.6c-0.1-0.7-0.2-1.4-0.2-2c0-1.2,0.1-2.4,0.1-3.6
		c0-0.6,0.2-0.7,0.8-0.8c0.4,0,0.8,0,1.2,0.1c2.3,0.3,4.6,0.4,6.9,0.3c0.3,0,0.7,0,1,0.1c1,0.1,1.9,0.2,2.9,0.1
		c0.4,0,0.8-0.1,1.1,0.2c0.3,0.8,0.3,1.6,0.1,2.5c-0.2,0.9-0.3,1.8-0.5,2.7c-0.1,0.4-0.2,0.7-0.5,0.9c-0.9,0-1.8,0.1-2.7,0
		c-1.2-0.1-2.5-0.1-3.7-0.1C172.1,10.2,170,9.7,167.8,9.6z"/>
	<path fill-rule="evenodd" clip-rule="evenodd" fill="#B2B3B3" d="M235,10.7c-0.4,0.2-0.7,0.2-1,0.2c-0.9-0.1-1.8-0.2-2.8-0.4
		c-1-0.1-1.9-0.4-2.9-0.5c-1-0.1-1.9-0.1-2.9-0.2c-0.8,0-1.5-0.1-2.3-0.1c-0.2,0-0.5-0.1-0.7-0.2c-0.1,0-0.2-0.1-0.3-0.2
		c0-0.5-0.1-1.1-0.1-1.7c0.2-1.4,0-2.9,0.4-4.4c0.2,0,0.4-0.1,0.6,0c0.8,0.2,1.6,0.2,2.4,0.3c0.9,0,1.7,0,2.6,0.1
		c0.6,0,1.2,0.1,1.7,0.2c1.4,0.3,2.8,0.3,4.1,0.5c0.4,0.1,0.8,0.1,1.3,0.1c0.8,0,1.1,0.6,1.1,1.5c0,0.3-0.1,0.7-0.2,1
		c-0.1,0.3-0.1,0.6-0.1,0.9C235.9,8.9,235.5,9.9,235,10.7z"/>
	<path fill-rule="evenodd" clip-rule="evenodd" fill="#B2B3B3" d="M264.3,18.4c-0.2-1-0.1-2-0.1-3c0-0.8,0.1-1.5,0.1-2.3
		c0-0.8,0.2-1,1.1-1c1.3,0,2.6,0.1,3.9,0.1c0.9,0,1.9,0,2.8,0c0.7,0,1.4,0.1,2.1,0.1c0.5,0,1.1,0,1.6,0c0.6,0,1.2,0,1.8,0.1
		c0.5,0,0.7,0.3,0.7,0.8c0,1.4-0.2,2.7-0.4,4c-0.1,0.6-0.1,1.2-0.5,1.6C273.1,18.8,268.7,18.6,264.3,18.4z"/>
	<path fill-rule="evenodd" clip-rule="evenodd" fill="#B2B3B3" d="M99.3,2.5c0.3,0.4,0.3,0.7,0.3,1.1c0,1.8-0.1,3.5-0.7,5.2
		c-0.4,0.3-0.7,0.2-1.1,0.2c-0.7-0.1-1.5-0.2-2.2-0.2c-2.6,0-5.3,0-7.9,0c-0.5,0-1,0-1.5-0.1c-0.4,0-0.5-0.2-0.6-0.6
		c0-1.1,0-2.2,0-3.2c0-0.7,0-1.3,0.1-2c0-0.5,0.2-0.7,0.7-0.6c1.2,0.2,2.4,0.1,3.6,0c1.2-0.1,2.3-0.1,3.5,0c0.5,0,1,0.1,1.5,0
		c0.8-0.1,1.6,0,2.4,0C98,2.4,98.6,2.4,99.3,2.5z"/>
	<path fill-rule="evenodd" clip-rule="evenodd" fill="#B2B3B3" d="M333.2,11c-0.1-0.3-0.2-0.6-0.2-0.8c0-1.8-0.1-3.5,0.1-5.3
		c0.3-0.1,0.4-0.1,0.6-0.2c1.5-0.1,2.9,0.1,4.4,0.2c1.2,0.1,2.3,0.2,3.4,0.5c0.7,0.1,1.5,0.1,2.2,0.1c0.8,0.1,1.7-0.1,2.5,0.2
		c0.1,0,0.2,0.1,0.4,0.2c0,0.2,0.1,0.4,0.1,0.7c-0.1,1.3-0.1,2.5-0.2,3.8c0,0.5-0.2,0.9-0.3,1.3c-0.1,0.3-0.3,0.4-0.6,0.4
		c-0.1,0-0.2,0-0.3,0c-2-0.2-4-0.3-6-0.6c-1.7-0.3-3.4-0.3-5.1-0.4C333.8,11,333.5,11,333.2,11z"/>
	<path fill-rule="evenodd" clip-rule="evenodd" fill="#B2B3B3" d="M208.3,4.8c0.1,2.2-0.2,4.2-1,6.3c-0.7-0.1-1.3-0.2-1.9-0.3
		c-1.1-0.2-2.1-0.4-3.2-0.4c-2-0.1-3.9-0.2-5.9-0.2c-0.6,0-1.1-0.1-1.7-0.3c-0.1-0.7-0.1-1.3-0.1-2c0.1-1.3,0.2-2.5,0.3-3.8
		c0-0.3,0.2-0.5,0.5-0.5c2.2,0.4,4.5,0.3,6.7,0.4c2,0.1,3.9,0.3,5.9,0.7C208,4.6,208.1,4.7,208.3,4.8z"/>
	<path fill-rule="evenodd" clip-rule="evenodd" fill="#B2B3B3" d="M43.5,8.7c-0.8,0-1.5,0-2.2,0c-0.8,0-1.7-0.1-2.5-0.2
		c-1.9-0.2-3.9-0.2-5.8,0c-0.5,0.1-1.1,0.1-1.6,0.1c-0.1,0-0.3-0.1-0.5-0.1c-0.1-0.7-0.3-1.4-0.2-2.2c0.1-0.5,0-1,0-1.5
		c0-0.7,0-1.4,0-2.1c0-0.2,0.1-0.3,0.2-0.5c3.1-0.2,6.1-0.4,9.1-0.2c0.5,0,0.9,0.1,1.4,0.2c0.6,0.1,1.2,0.2,1.8,0c0.1,0,0.2,0,0.3,0
		c0.5,0,0.8,0.4,0.7,0.9C44,4.6,44,6.2,43.8,7.7C43.8,8,43.6,8.3,43.5,8.7z"/>
	<path fill-rule="evenodd" clip-rule="evenodd" fill="#B2B3B3" d="M194.6,11.6c0.2,2.1,0.1,4.1-0.6,6.1c-0.2,0-0.4,0.1-0.5,0.1
		c-1.5-0.1-2.9-0.2-4.4-0.1c-1.2,0-2.3,0-3.5-0.1c-1.2-0.1-2.4-0.1-3.6,0.1c-0.1,0-0.3,0-0.5-0.1c-0.3-0.6-0.2-1.2-0.3-1.8
		c0-1.1,0-2.2,0-3.2c0-0.2,0-0.3,0-0.5c0.1-0.6,0.2-0.8,0.8-0.8c0.7-0.1,1.5-0.1,2.2-0.1c3,0.1,6,0,8.9,0.1
		C193.6,11.3,194.1,11.2,194.6,11.6z"/>
	<path fill-rule="evenodd" clip-rule="evenodd" fill="#B2B3B3" d="M208.8,17.4c-0.2-2,0-3.9,0-5.7c0-0.2,0.1-0.4,0.2-0.6
		c3-0.3,6-0.3,8.9,0c1.3,0.1,2.5,0,3.8,0.4c0.2,0.5,0.4,0.8,0.2,1.3c-0.1,0.1,0,0.3,0,0.4c0.1,1.4-0.3,2.8-0.5,4.1
		c-0.1,0.4-0.3,0.5-0.8,0.5c-0.5,0-1.1-0.1-1.6-0.2c-2-0.3-4.1-0.3-6.1-0.3c-0.8,0-1.7,0-2.6,0.1C209.7,17.4,209.3,17.4,208.8,17.4z
		"/>
	<path fill-rule="evenodd" clip-rule="evenodd" fill="#B2B3B3" d="M332.3,19.1c-0.8-0.1-1.4-0.2-2.1-0.3c-2.4-0.1-4.7-0.2-7.1,0.1
		c-0.8,0.1-1.7,0.1-2.6,0.1c-0.1-0.3-0.2-0.5-0.2-0.7c-0.1-1-0.1-1.9,0-2.9c0-0.7,0-1.4,0-2.1c0-0.5,0.2-0.7,0.7-0.8
		c0.1,0,0.2,0,0.2,0c2.7,0,5.5-0.4,8.2-0.2c0.8,0.1,1.5,0.1,2.3,0.2c0.6,0,0.9,0.4,1.1,1c0.2,0.7,0.1,1.4,0,2.1
		c0,0.4-0.1,0.7-0.1,1.1c0,0.6-0.1,1.1-0.2,1.7C332.7,18.6,332.5,18.8,332.3,19.1z"/>
</g>
</svg>
