<?xml version="1.0" encoding="utf-8"?>
<!-- Generator: Adobe Illustrator 17.1.0, SVG Export Plug-In . SVG Version: 6.00 Build 0)  -->
<!DOCTYPE svg PUBLIC "-//W3C//DTD SVG 1.1//EN" "http://www.w3.org/Graphics/SVG/1.1/DTD/svg11.dtd">
<svg version="1.1" id="Layer_1" xmlns="http://www.w3.org/2000/svg" xmlns:xlink="http://www.w3.org/1999/xlink" x="0px" y="0px"
	 viewBox="0 375 612 36" enable-background="new 0 375 612 36" xml:space="preserve">
<g>
	<path fill="#B2B3B3" d="M549.4,392.3c-2.9-2.2-5.9-4.4-8.8-6.4c-2.2-1.5-3.7-3.4-3.7-5.7c0.6-0.2,1-0.2,1.6-0.5
		c0.6-0.2,1-0.5,1.6-0.8c0.4,0.3,0.7,0.5,1,0.8c3.2,3.9,7.6,6.6,11.6,9.8c1.2,0.8,2.2,1.9,3.4,2.7c0.9,0.7,1.3,1.4,0.9,2.5
		c-0.7,2.4-1.8,4.2-3.9,5.7c-3.4,2.4-6.4,5.2-9.7,7.9c-1,0.8-1.9,1.7-2.8,2.5c-1.2,1-3.1,0.8-4.1-0.3c-0.4-0.5-0.7-1-1-1.4
		c0.3-1.5,1.2-2.4,2.5-2.9c0.7-0.3,1.3-0.7,1.9-1.2c2.2-1.9,4.2-3.9,6.4-5.7c0.3-0.2,0.4-0.7,0.6-1c-0.4-0.2-0.7-0.3-0.9-0.3
		c-3.9,0.2-7.9,0.3-11.8,0.3c-3.2,0-6.4-0.3-9.7-0.2s-6.4,0.2-9.8,0c-3.8-0.2-7.6-0.3-11.3-0.3c-1.6,0-3.2,0-4.8,0
		c-0.7,0-1.6,0.2-2.3,0c-6.4-0.8-12.9-1-19.3-1c-4.4,0-8.8,0-13.2,0c-1.3,0-2.6-0.2-3.8-0.3c-0.6,0-1-0.2-1.6-0.2
		c-4.2,0.2-8.6,0.3-12.9,0.3s-8.6,0-12.9,0c-4.1,0-8.3,0.2-12.4,0.3c-3.4,0.2-6.7,0.3-10.1,0.5c-2.5,0-5.1,0-7.6,0
		c-2.9,0-5.9,0.2-8.8,0.2c-2.3,0-4.8-0.2-7.2,0c-4.1,0.2-8.2-0.7-12.3,0.7c-2.3,0.7-4.2-1.4-3.5-3.7c0.3-1.2,1.2-1.7,2.9-1.7
		c2.8,0,5.6,0.2,8.2,0.2c6.1,0.2,12.4,0.3,18.6,0.5c3.7,0,7.5,0,11.1,0c1,0,2-0.3,3.1-0.3c4.4-0.2,8.9-0.2,13.3-0.3
		c2.8,0,5.7-0.3,8.5-0.3c4.7-0.2,9.5-0.2,14.2-0.2c5.6,0,11.3,0.2,16.8,0.3c4.4,0,8.6-0.2,13-0.2c5.1,0.2,10.2,0.5,15.4,0.8
		c0.6,0,1,0.2,1.6,0c4.8-0.7,9.7,0.3,14.5,0.5c2.8,0.2,5.7,0.2,8.5,0.2c4.7-0.2,9.2-0.3,13.9-0.5c3.9-0.2,7.9-0.2,11.8-0.3
		c1,0,2-0.2,3.1-0.3C549.4,392.8,549.4,392.4,549.4,392.3z"/>
	<path fill="#B2B3B3" d="M81.3,379.9c0.7,0.2,1.5,0.2,2.3,0.3c1.3,0.2,1.9,1.2,2.2,2.2c0.1,1-0.4,1.9-1.3,2.5
		c-2.2,1.4-4.4,2.7-6.6,4.1c-1.2,0.7-2,1.5-2.9,2.9c1.9,0.2,3.8,0.3,5.9,0.5c2.6,0.2,5.3,0.3,7.9,0.3c0.9,0,1.6-0.3,2.5-0.3
		c3.2,0,6.4-0.2,9.7-0.2c4.5,0,9.1,0,13.6,0c3.4,0,6.9,0.3,10.2,0.3c1.2,0.2,2.3-0.2,3.5-0.2c5.1-0.2,10.1-0.5,15.2-0.7
		c6.1-0.3,12.3-0.7,18.4-0.7c4.1,0,8,0.3,12.1,0.3c3.4,0,6.9-0.2,10.2-0.3c1.5,0,2.9,0.3,4.4,0.5c8,0,15.9,0.2,24,0.2
		c2.6,0,5.3-0.3,7.9-0.3c5.7,0,11.3,0.3,17,0.3c2.9,0,6-0.3,9.1-0.5c1,0,2,0,3.1,0c1.8,0.2,2.3,0.7,2.5,2c0.1,1.5-0.7,2.7-2.3,3
		c-0.7,0.2-1.6,0.2-2.5,0.2c-0.3,0-0.7-0.2-1-0.2c-7.5,0.5-14.8-0.5-22.1-0.7c-3.7,0-7.3,0.2-11.1,0.2c-4.7,0-9.5,0-14.2-0.2
		c-5.1,0-10.2,0-15.4,0c-6.6-0.2-13-0.3-19.6-0.3c-4.5,0-8.9,0.3-13.5,0.5c-3.8,0.2-7.6,0.2-11.4,0.2c-3.8,0.2-7.8,0.3-11.6,0.3
		c-3.8,0-7.6,0-11.4,0.2c-8,0.2-15.9,0.2-24,0.2c-4.2,0-8.6-0.2-12.9-0.2c-1.3,0-2.5,0.2-4.2,0.3c3.1,2.7,6.4,4.2,9.8,5.6
		c1.6,0.5,2.6,1.4,2.9,3c0.1,1.2,0,2-1,2.5c-0.9,0.7-1.8,0.3-2.6-0.2c-2.2-1.4-4.5-2.9-6.6-4.4c-3.4-2.5-7-4.4-10.7-6.3
		c-1.5-0.8-2-2-2.3-3.6c-0.3-1.4,0.6-2.4,1.8-3c0.9-0.5,1.9-1,2.8-1.7c3.2-2.2,6.6-4.2,9.8-6.4C79.7,381.8,80.3,380.9,81.3,379.9z"
		/>
	<path fill="#B2B3B3" d="M306.3,405.6c-1.9-0.3-3.9-0.7-5.7-1.2c-3.4-1.2-5.7-6.1-5.7-9.5c0-3.7,2.2-6.1,4.4-8.6
		c0.6-0.7,1.5-1.5,2.3-1.9c2.2-0.8,4.4-1.4,6.6-1.9s4.2,0.7,6,1.7c2,1.2,3.8,2.9,5.6,4.4c1,1,1.6,2.4,1.5,4.1
		c-0.1,1.5,0.1,3.4-0.1,4.9c-0.7,3.6-3.5,5.4-6.7,6.6C311.7,405.1,309.1,405.5,306.3,405.6z M308.3,400.2c1.5-0.3,2.9-0.7,4.5-1
		c4.5-1,4.4-6.6,2.3-9c-0.6-0.7-1.6-1.2-2.5-1.7c-3.1-2.4-8.3-1.7-10.4,1.7c-0.3,0.3-0.6,1-0.4,1.4c0.7,1.2,0.1,2.2-0.4,3.2
		c-0.7,1.4-0.6,3.2,0.4,3.7C303.9,399.4,305.8,400.7,308.3,400.2z"/>
	<path fill="#B2B3B3" d="M336,395c-0.1-5.4,2.8-7.9,7.9-7.8c2.6,0,4.8,1,6.3,3.2c1.8,2.4,1.6,5.2-0.4,7.4c-0.4,0.5-0.9,1-1.3,1.5
		c-2.5,3-7.3,3.4-10.1,0.5C336.9,398.4,335.5,396.8,336,395z M346.4,392.6c-2.5-1.5-2.6-1.5-5,0.3c0,0.7-0.1,1.5-0.1,2.2
		s0.1,1.5,1,1.7s1.6,0.3,2.3-0.5C345.5,395.3,346.5,394.1,346.4,392.6z"/>
	<path fill="#B2B3B3" d="M273.5,387.4c2.9,0.3,7.6,2.2,7.9,5.9c0.4,5.2-2.3,7.6-8.2,7.3c-1,0-2.2-0.3-3.2-0.8
		c-3.1-1.5-4.4-5.1-3.8-7.4C267.1,389.4,270.3,387.5,273.5,387.4z M271.2,395.3c1.3,1,2.8,0.8,4.1,0.7c1.2-0.2,1.6-0.8,1.6-1.9
		c0-0.8-0.7-1.4-1.8-1.5C272.8,391.9,272,392.4,271.2,395.3z"/>
</g>
</svg>
