<?xml version="1.0" encoding="utf-8"?>
<!-- Generator: Adobe Illustrator 17.1.0, SVG Export Plug-In . SVG Version: 6.00 Build 0)  -->
<!DOCTYPE svg PUBLIC "-//W3C//DTD SVG 1.1//EN" "http://www.w3.org/Graphics/SVG/1.1/DTD/svg11.dtd">
<svg version="1.1" id="Layer_1" xmlns="http://www.w3.org/2000/svg" xmlns:xlink="http://www.w3.org/1999/xlink" x="0px" y="0px"
	 viewBox="0 0 361.9 20.2" enable-background="new 0 0 361.9 20.2" xml:space="preserve">
<path fill-rule="evenodd" clip-rule="evenodd" fill="#B2B3B3" d="M347.6,18c-0.9-0.5-1.7-0.9-2.5-1.6c-1-0.8-2.1-1.6-3.1-2.4
	c-1.7-1.2-3.4-2.4-4.9-3.9c-0.4-0.4-0.8-0.6-1.2-0.9c-0.5-0.3-0.9-0.6-1.4-0.9c-1.5,1-2.7,2.1-4.1,3.2c-1.4,1.1-2.7,2.2-4,3.4
	c-1.3,1.1-2.5,2.3-3.8,3.5c-0.4-0.3-0.9-0.6-1.2-1c-0.7-0.7-1.5-1.3-2.4-1.9c-1-0.7-1.8-1.6-2.7-2.4c-1.6-1.6-3.3-3.1-5.1-4.4
	c-0.3-0.2-0.5-0.4-0.8-0.6c-0.8,0.3-1.5,0.8-2.2,1.4c-2.1,1.7-4.2,3.4-6.3,5.1c-0.6,0.5-1.1,0.9-1.7,1.4c-0.5,0.4-1.1,0.8-1.5,1.3
	c-0.4,0.5-0.6,0.5-1.2,0.1c-0.6-0.4-1.1-0.9-1.7-1.3c-1.2-0.8-2.4-1.6-3.5-2.4c-0.4-0.3-0.9-0.7-1.3-1c-1.4-1.2-2.9-2.4-4-3.8
	c-0.1-0.1-0.2-0.3-0.4-0.4c-0.1-0.1-0.2-0.1-0.3-0.2c-0.1,0-0.3,0.1-0.4,0.2c-1.3,1-2.7,1.9-3.9,3c-1.4,1.2-2.7,2.4-4,3.6
	c-0.5,0.5-1.1,0.9-1.6,1.3c-0.6,0.5-1.3,0.9-1.9,1.4c-0.4,0.3-0.7,0.3-1.1,0.1c-1.9-1-3.8-2.1-5.6-3.3c-1.3-0.9-2.6-1.6-3.9-2.5
	c-1.1-0.8-2.3-1.7-3.4-2.6c-0.2-0.2-0.4-0.3-0.6-0.5c-0.8-0.7-1.2-0.8-1.9,0.1c-0.1,0.1-0.2,0.2-0.3,0.3c-0.9,0.7-1.9,1.4-2.8,2
	c-1.4,1-2.7,2.2-4,3.3c-0.8,0.7-1.7,1.4-2.5,2.2c-0.5,0.4-0.9,0.8-1.3,1.3c-0.3,0.3-0.4,0.3-0.8,0.2c-1-0.5-2.1-1.1-3-1.8
	c-0.5-0.4-0.9-0.7-1.4-1c-0.9-0.7-1.8-1.4-2.5-2.2c-0.6-0.6-1.1-1.3-1.7-1.8c-0.9-0.8-1.8-1.7-2.6-2.5c-0.2-0.2-0.5-0.3-0.7-0.5
	c-1.3-0.8-1.2-0.7-2.3,0c-2.3,1.5-4.6,2.9-6.7,4.5c-1,0.8-2,1.7-3.1,2.5c-0.8,0.6-1.6,1-2.4,1.5c-0.1,0.1-0.3,0.1-0.4,0.1
	c-0.9-1.2-2.1-2.1-3.4-2.9c-1.3-0.9-2.7-1.7-4-2.5c-0.5-0.3-1-0.7-1.4-1c-0.1-0.1-0.2-0.2-0.4-0.3c-1-0.6-2-1.2-2.9-2
	c-0.2-0.2-0.4-0.3-0.7-0.5c-0.3,0.2-0.6,0.3-0.8,0.5c-1.1,0.8-2.1,1.6-3.1,2.4c-1.3,1-2.7,2-4.1,3c-0.8,0.6-1.6,1.3-2.4,2
	c-0.3,0.3-0.6,0.7-0.9,1.1c-0.2,0.2-0.3,0.4-0.5,0.6c-0.2-0.1-0.4-0.2-0.6-0.3c-1.8-1.1-3.6-2.2-5.4-3.3c-1.4-0.9-2.7-1.8-4.1-2.8
	c-0.9-0.7-1.8-1.4-2.4-2.4c-0.3-0.5-0.7-0.9-1.2-1.4c-0.6,0.3-1.1,0.6-1.6,0.9c-1,0.6-2,1.2-3,1.8c-1.3,0.7-2.5,1.6-3.6,2.5
	c-0.7,0.6-1.5,1.1-2.3,1.7c-0.9,0.6-1.9,1.3-2.7,2.1c-0.1,0.1-0.2,0.1-0.3,0.2c-0.5-0.3-1-0.7-1.5-1.1c-1.5-1.2-3.1-2.3-4.8-3.2
	c-0.5-0.3-0.9-0.6-1.4-0.9c-0.4-0.2-0.7-0.5-1.1-0.7c-1.3-0.7-2.6-1.5-3.8-2.4c-0.5-0.4-0.7-0.4-1.2,0c-0.9,0.7-1.8,1.2-2.8,1.8
	c-0.9,0.5-1.8,1.2-2.6,1.8c-1.5,1.2-3,2.4-4.4,3.8c-0.5,0.5-0.9,1-1.4,1.5c0,0-0.2,0-0.3-0.1c-1.9-1.6-3.9-3.1-5.8-4.7
	c-1.2-1-2.3-2.1-3.5-2.9c-0.8-0.6-1.7-1.1-2.6-1.7c-0.5-0.3-0.9-0.6-1.4-0.9c-0.6,0.4-1.2,0.8-1.8,1.2c-1.2,0.8-2.5,1.6-3.7,2.3
	c-2,1.1-3.8,2.5-5.5,4c-0.5,0.4-0.9,0.9-1.3,1.3c-0.2,0.2-0.4,0.3-0.6,0.4c-2-1.3-3.9-2.6-5.8-3.8c-0.6-0.4-1.2-0.8-1.7-1.3
	c-1.5-1.4-3-2.7-4.5-4c-0.1-0.1-0.3-0.2-0.5-0.4c-0.3,0.1-0.6,0.2-0.9,0.4c-1.2,0.8-2.3,1.5-3.5,2.3c-0.8,0.6-1.6,1.1-2.4,1.7
	c-1,0.7-1.9,1.5-2.8,2.2c-0.8,0.6-1.5,1.2-2.2,2c-0.1,0.1-0.2,0.2-0.4,0.3c-0.5-0.1-1-0.3-1.4-0.6c-1-0.6-2-1.3-3-1.9
	c-1.3-0.8-2.6-1.6-4-2.3c-1-0.5-1.9-1-2.7-1.7c-1-0.7-2.2-1.3-3.2-2c-0.3-0.2-0.7-0.3-1-0.5C75.6,7,75,7.4,74.5,7.8
	c-1.5,1.2-3,2.4-4.5,3.6c-1.7,1.4-3.5,2.7-5,4.3c-0.3,0.4-0.7,0.8-1,1.2c-0.1,0.2-0.3,0.3-0.5,0.5c0,0-0.1,0-0.2,0.1
	c-1.4-0.7-2.7-1.4-3.9-2.4c-0.6-0.5-1.2-0.9-1.8-1.4c-1.3-1.2-2.6-2.4-3.9-3.7c-0.7-0.7-1.5-1.5-1.9-2.5c-0.1-0.2-0.3-0.4-0.5-0.7
	C51,7,50.7,7.1,50.4,7.3c-1.4,1.1-2.7,2.3-4,3.4c-1.1,0.9-2.3,1.8-3.4,2.8c-1.2,1-2.3,2.2-3.3,3.4c-0.3,0.3-0.4,0.7-0.6,1.1
	c-0.2-0.1-0.4-0.1-0.5-0.2c-1.5-1.5-3.2-2.8-4.6-4.4c-0.5-0.6-1.2-1-1.9-1.5c-2.1-1.7-4.1-3.5-6.1-5.4c-0.1-0.1-0.3-0.2-0.5-0.3
	c-0.5,0.5-1,0.9-1.5,1.4c-1.4,1.2-2.8,2.5-4,3.9c-0.3,0.4-0.7,0.7-1.1,1.1c-1.1,1-2.2,2.1-3.4,2.9c-0.3,0.2-0.6,0.4-1,0.6
	c-0.8-1.4-1.2-2.8-1.6-4.4c0.1-0.2,0.2-0.4,0.3-0.7c0.2-0.8,0.8-1.3,1.4-1.8c0.1-0.1,0.4-0.1,0.5-0.3c1.2-1.2,2.6-2.3,3.7-3.6
	c0.7-0.9,1.6-1.6,2.4-2.4c0.9-0.9,1.9-1.6,2.6-2.6c0.1-0.1,0.2-0.1,0.3-0.2c0.1,0.1,0.3,0.3,0.4,0.5C24.7,0.8,24.8,1,25,1.1
	c0.8,0.8,1.7,1.5,2.5,2.3c1.3,1.1,2.5,2.2,3.8,3.3c1.2,1,2.3,2,3.4,3.1c0.3,0.3,0.6,0.5,0.9,0.8c0.4,0.4,0.8,0.7,1.2,1.1
	c0.1,0.1,0.2,0.2,0.4,0.3c0.6-0.4,1.1-1,1.6-1.5c0.9-0.8,1.7-1.6,2.6-2.4c0.4-0.4,0.8-0.8,1.3-1.2c1.1-0.9,2.3-1.8,3.5-2.7
	c1.3-1,2.5-2,3.7-3.1c0.2-0.1,0.3-0.3,0.4-0.5C50.7,0.4,51,0.6,51,0.9c0.5,1.9,1.9,3.2,3.4,4.5c0.2,0.1,0.3,0.3,0.5,0.4
	c0.9,1,1.9,1.8,2.9,2.7c1,0.8,2.1,1.5,3.1,2.2c0.4,0.3,0.9,0.5,1.4,0.7c1.2-0.9,2.1-2,3.3-2.9c1.2-0.9,2.3-1.9,3.5-2.8
	c1.1-0.9,2.3-1.8,3.5-2.7c1.1-0.9,2.1-2,3.5-2.6c0.5,0.9,0.5,0.9,1.6,1.6c1.2,0.8,2.4,1.5,3.6,2.3c0.4,0.3,0.9,0.5,1.4,0.7
	c1.6,0.7,3.1,1.6,4.6,2.6c0.3,0.2,0.7,0.4,1,0.6C89,8.5,89.8,9,90.6,9.4c0.4-0.3,0.7-0.5,1.1-0.8C92.8,7.7,93.9,6.9,95,6
	c1.8-1.4,3.7-2.8,5.6-4c0.9-0.6,1.8-1.2,2.6-1.8c0.1,0.1,0.2,0.1,0.3,0.1c1.1,1.1,2.3,2.1,3.5,3.1c0.3,0.3,0.6,0.5,0.9,0.8
	c0.7,0.7,1.4,1.4,2.4,1.9c0.8,0.4,1.5,1,2.3,1.5c0.9,0.6,1.7,1.1,2.6,1.7c0.5,0.3,0.9,0.4,1.5-0.1c1-0.9,2-1.7,3.1-2.5
	c1.4-1.1,3-2.1,4.6-3c1.3-0.8,2.6-1.6,3.8-2.4c0.3-0.2,0.5-0.4,0.8-0.6c0.6-0.4,0.6-0.4,1.1,0.1c0.5,0.6,1.2,1,1.9,1.4
	c1.3,0.7,2.4,1.6,3.5,2.6c1.2,1,2.5,2,3.6,3c0.5,0.5,1.2,0.8,1.7,1.3c0.6,0.5,1.1,0.9,1.7,1.4c0.1,0.1,0.2,0.1,0.3,0.1
	c0.4-0.1,0.7-0.5,1-0.7c1.4-1.2,2.8-2.5,4.3-3.6c1.3-1,2.7-1.8,4.1-2.7c0.9-0.6,1.8-1.1,2.5-1.9c0.2-0.3,0.6-0.3,0.8-0.1
	c1.2,1.3,2.8,2,4.3,2.9c0.2,0.1,0.4,0.2,0.6,0.3c1.2,0.7,2.4,1.4,3.6,2.2c0.8,0.5,1.6,1.1,2.5,1.7c0.7,0.5,1.3,0.9,2,1.4
	c0.2-0.1,0.5-0.2,0.7-0.4c1.1-0.7,2.3-1.5,3.4-2.3c0.4-0.2,0.8-0.5,1.1-0.7c1.3-1.1,2.8-2,4.3-2.9c1.4-0.8,2.8-1.7,4.1-2.5
	c0.1,0,0.1-0.1,0.2-0.1c0.3-0.2,0.6-0.1,0.8,0.2c0.3,0.5,0.7,1,1,1.4c0.7,1,1.5,1.8,2.5,2.4c1.6,1.1,3.3,2.2,4.9,3.3
	c1.5,0.9,3,1.7,4.5,2.6c0.1-0.1,0.2-0.1,0.3-0.2c1.5-1.6,3.3-2.8,5.1-4c2.3-1.6,4.5-3.2,6.7-5c0.1-0.1,0.2-0.1,0.3-0.2
	c0.2,0.1,0.3,0.2,0.5,0.4c0.9,0.8,1.9,1.5,2.9,2.1c1.1,0.6,2.1,1.4,3.1,2.1c1.4,0.9,2.9,1.9,4.3,2.8c0.4,0.3,0.8,0.6,1.3,0.9
	c0.4,0,0.7-0.2,1.1-0.5c1.3-1,2.6-2,3.9-3c1-0.8,2.1-1.4,3.2-2.2c1.1-0.8,2.2-1.5,3.4-2.3c0.4-0.2,0.7-0.4,1.1-0.7
	c1,0.4,1.8,1,2.6,1.7c1.1,0.9,2.1,1.9,3.1,3c1.6,1.7,3.3,3.2,5.3,4.4c0.6,0.4,1.2,0.8,1.8,1.2c0.2,0.2,0.5,0.2,0.8,0.4
	c0.2-0.1,0.5-0.3,0.7-0.4c1.7-1.2,3.2-2.6,4.7-3.9c1.2-1,2.5-2,3.7-2.9c0.6-0.5,1.3-1,1.9-1.5c0.7-0.6,1.5-1.1,2.4-1.4
	c0.3,0.4,0.4,1,0.8,1.3c0.4,0.3,0.8,0.6,1.2,0.9c0.4,0.3,0.7,0.5,1,0.8c1.1,1,2.5,1.8,3.8,2.6c0.4,0.3,0.9,0.5,1.3,0.8
	c1,0.6,1.9,1.3,2.9,1.9c0.9,0.5,1.8,0.9,2.7,1.4c0.3,0.2,0.6,0.1,0.9-0.1c1.6-1,3.2-2.1,4.6-3.4c1.9-1.7,3.8-3.4,5.9-4.8
	c0.6-0.4,1.1-0.8,1.7-1.2c0.3-0.2,0.5-0.2,0.7,0.1c0.7,1.1,1.6,2,2.6,2.9c0.8,0.7,1.6,1.6,2.6,2.2c0.1,0.1,0.2,0.2,0.2,0.2
	c1.3,0.8,2.5,1.6,3.8,2.4c0.3,0.2,0.6,0.4,0.8,0.6c0.4,0.4,0.9,0.6,1.3,1c0.8-0.6,1.6-1.1,2.3-1.7c2.3-1.8,4.7-3.7,7-5.5
	c0.6-0.5,1.2-0.9,1.8-1.4c0.3-0.2,0.5-0.4,0.7-0.7c0.3-0.2,0.5-0.5,0.9-0.6c0.1,0.1,0.3,0.2,0.3,0.4c0.2,0.5,0.6,0.8,1,1
	c0.8,0.4,1.4,1,2.1,1.6c0.6,0.5,1.2,1,1.8,1.6c0.4,0.3,0.8,0.7,1.1,1.1c0.9,1.1,1.9,2,3.1,2.8c0.7,0.5,1.4,1,1.9,1.6
	c0.2,0.2,0.4,0.5,0.9,0.5c4-3.4,8.1-6.8,12.3-10c0.2,0.1,0.3,0.3,0.4,0.4c0.3,0.3,0.6,0.6,0.9,0.8c1,0.7,2,1.4,2.9,2.3
	c0.1,0.1,0.3,0.2,0.4,0.3c1.5,1.1,3.1,2.2,4.6,3.4c0.5,0.4,1,0.8,1.5,1.1c0.7,0.5,1.3,1,2.1,1.4c0.7,0.3,0.7,0.5,0.5,1.2
	c-0.4,0.9-0.7,1.8-1,2.8c-0.2,0.6-0.4,1.3-0.9,1.8C347.9,17.9,347.8,17.9,347.6,18z"/>
</svg>
