<?xml version="1.0" encoding="utf-8"?>
<!-- Generator: Adobe Illustrator 17.1.0, SVG Export Plug-In . SVG Version: 6.00 Build 0)  -->
<!DOCTYPE svg PUBLIC "-//W3C//DTD SVG 1.1//EN" "http://www.w3.org/Graphics/SVG/1.1/DTD/svg11.dtd">
<svg version="1.1" id="Layer_1" xmlns="http://www.w3.org/2000/svg" xmlns:xlink="http://www.w3.org/1999/xlink" x="0px" y="0px"
	 viewBox="0 0 361.9 20.2" enable-background="new 0 0 361.9 20.2" xml:space="preserve">
<path fill-rule="evenodd" clip-rule="evenodd" fill="#B2B3B3" d="M172.6,9.2c-0.7,0.7-1.5,0.3-2.2,0.4c-0.4,0.4-0.2,0.9-0.1,1.3
	c0,0.2,0.3,0.4,0.5,0.5c1.2,0.5,2.2,0.2,2.8-0.9c0.3-0.5,0.6-1,0.8-1.6c0.5-1,0.4-1.9-0.1-2.9c-0.2-0.3-0.4-0.6-0.5-0.9
	c-0.2-0.5-0.6-0.7-1.1-0.9c-2.4-0.9-4.9-1.4-7.4-1.5c-0.6,0-1.3,0-1.9-0.1c-2.5-0.2-5.1,0-7.6,0.1c-2.4,0.1-4.9,0.3-7.3,0.4
	c-1.4,0-2.8,0.3-4.1,0.5c-1.4,0.2-2.9,0.4-4.3,0.6c-1.8,0.3-3.6,0.6-5.5,0.9c-0.7,0.1-1.4,0.3-2.1,0.4c-1.9,0.2-3.7,0.7-5.5,1.1
	C125,7,123.3,7.6,121.5,8c-3,0.7-6.1,1.5-9.2,2.1c-4.2,0.8-8.4,1.8-12.6,2.7c-2.5,0.5-5,1.1-7.5,1.5c-2.6,0.4-5.1,0.9-7.6,1.4
	c-3.7,0.7-7.4,1.5-11.2,1.8c-1.4,0.1-2.8,0.2-4.2,0.3c-0.9,0.1-1.9,0.2-2.8,0.3c-0.9,0.1-1.8,0.1-2.7,0.1c-1.8,0-3.7,0-5.5,0
	c-2.1-0.1-4.3-0.2-6.4-0.4c-2.4-0.2-4.8-0.4-7.1-0.8c-3.1-0.4-6.1-0.6-9.1-1.5c-1.9-0.5-3.7-1.1-5.6-1.6c-1.6-0.4-2.6-1.5-3.5-2.9
	c-0.2-0.3-0.4-0.7-0.6-1c-0.8-1-0.8-2.1-0.5-3.3c0.1-0.7,0.3-1.4,0.6-2c0.7-1.7,2.1-2.8,3.9-3.2c0.9-0.2,1.7,0.1,2.5,0.4
	c1.9,0.9,3.1,2.8,3,4.8c0,1.2-1.4,2.8-2.6,3c-0.1,0-0.3,0-0.4,0c-0.9-0.3-1.7-0.7-2.1-1.6c-0.3-0.6-0.3-1.1-0.1-1.7
	c0.2-0.5,0.8-0.7,1.2-0.3c0.4,0.3,0.6,0.7,1,1.2c0.5-0.1,0.7-0.5,0.7-1.1c0-0.6-0.1-1.1-0.7-1.3c-0.6-0.2-1.2-0.4-1.9-0.5
	c-0.2,0-0.4,0-0.6,0c-1.3,0.6-2.3,1.5-2.5,2.9c-0.1,0.6,0,1.2,0.4,1.8C28.3,9.9,29,10.6,30,11c1.2,0.4,2.3,1,3.5,1.3
	c1.4,0.4,2.9,0.7,4.4,1c0.9,0.2,1.8,0.4,2.8,0.5c2.1,0.3,4.2,0.5,6.4,0.7c1.4,0.1,2.8,0.3,4.2,0.4c1.6,0.1,3.2,0.1,4.8,0.2
	c1.8,0,3.7,0,5.5,0.1c3.1,0,6.3,0,9.4-0.3c3.4-0.3,6.7-0.6,10.1-1c1.4-0.2,2.7-0.4,4.1-0.8c1.8-0.5,3.7-0.9,5.5-1.4
	c1.7-0.4,3.4-0.8,5.1-1.1c2.2-0.5,4.4-0.9,6.6-1.3c2.6-0.6,5.2-1.2,7.9-1.8c0.6-0.1,1.2-0.3,1.7-0.4c2.9-0.6,5.8-1.3,8.8-1.9
	c1.7-0.4,3.4-0.7,5.1-1c2.9-0.5,5.9-0.9,8.9-1.4c2.4-0.4,4.7-0.7,7.1-1.1c2.4-0.4,4.7-0.8,7.1-1.1c2.3-0.3,4.5-0.6,6.8-0.5
	c3.5,0.1,7,0.2,10.5,0.4c1.7,0.1,3.4,0.4,5,0.7c2.1,0.4,3.6,1.7,4.8,3.3c0.1,0.1,0.1,0.2,0.2,0.3c1,2.7,1.1,5.4-0.9,7.8
	c-0.9,1.1-2,1.9-3.6,1.7c-0.4-0.1-0.9-0.2-1.3-0.4c-0.9-0.4-1.7-1.1-2.2-1.9c-0.8-1.3-0.7-2.3,0-3.3c0.1-0.2,0.3-0.4,0.5-0.6
	c0.9-1.1,2.4-1.3,3.6-0.6c0.5,0.3,0.8,0.7,0.6,1.4C172.7,8.9,172.7,9.1,172.6,9.2z"/>
<path fill-rule="evenodd" clip-rule="evenodd" fill="#B2B3B3" d="M332.6,9.2c-0.7,0.7-1.5,0.3-2.2,0.4c-0.4,0.4-0.2,0.9-0.1,1.3
	c0,0.2,0.3,0.4,0.5,0.5c1.2,0.5,2.2,0.2,2.8-0.9c0.3-0.5,0.6-1,0.8-1.6c0.5-1,0.4-1.9-0.1-2.9c-0.2-0.3-0.4-0.6-0.5-0.9
	c-0.2-0.5-0.6-0.7-1.1-0.9c-2.4-0.9-4.9-1.4-7.4-1.5c-0.6,0-1.3,0-1.9-0.1c-2.5-0.2-5.1,0-7.6,0.1c-2.4,0.1-4.9,0.3-7.3,0.4
	c-1.4,0-2.8,0.3-4.1,0.5c-1.4,0.2-2.9,0.4-4.3,0.6c-1.8,0.3-3.6,0.6-5.5,0.9c-0.7,0.1-1.4,0.3-2.1,0.4c-1.9,0.2-3.7,0.7-5.5,1.1
	C285,7,283.3,7.6,281.5,8c-3,0.7-6.1,1.5-9.2,2.1c-4.2,0.8-8.4,1.8-12.6,2.7c-2.5,0.5-5,1.1-7.5,1.5c-2.6,0.4-5.1,0.9-7.6,1.4
	c-3.7,0.7-7.4,1.5-11.2,1.8c-1.4,0.1-2.8,0.2-4.2,0.3c-0.9,0.1-1.9,0.2-2.8,0.3c-0.9,0.1-1.8,0.1-2.7,0.1c-1.8,0-3.7,0-5.5,0
	c-2.1-0.1-4.3-0.2-6.4-0.4c-2.4-0.2-4.8-0.4-7.1-0.8c-3.1-0.4-6.1-0.6-9.1-1.5c-1.9-0.5-3.7-1.1-5.6-1.6c-1.6-0.4-2.6-1.5-3.5-2.9
	c-0.2-0.3-0.4-0.7-0.6-1c-0.8-1-0.8-2.1-0.5-3.3c0.1-0.7,0.3-1.4,0.6-2c0.7-1.7,2.1-2.8,3.9-3.2c0.9-0.2,1.7,0.1,2.5,0.4
	c1.9,0.9,3.1,2.8,3,4.8c0,1.2-1.4,2.8-2.6,3c-0.1,0-0.3,0-0.4,0c-0.9-0.3-1.7-0.7-2.1-1.6c-0.3-0.6-0.3-1.1-0.1-1.7
	c0.2-0.5,0.8-0.7,1.2-0.3c0.4,0.3,0.6,0.7,1,1.2c0.5-0.1,0.7-0.5,0.7-1.1c0-0.6-0.1-1.1-0.7-1.3c-0.6-0.2-1.2-0.4-1.9-0.5
	c-0.2,0-0.4,0-0.6,0c-1.3,0.6-2.3,1.5-2.5,2.9c-0.1,0.6,0,1.2,0.4,1.8c0.6,0.9,1.2,1.5,2.2,1.9c1.2,0.4,2.3,1,3.5,1.3
	c1.4,0.4,2.9,0.7,4.4,1c0.9,0.2,1.8,0.4,2.8,0.5c2.1,0.3,4.2,0.5,6.4,0.7c1.4,0.1,2.8,0.3,4.2,0.4c1.6,0.1,3.2,0.1,4.8,0.2
	c1.8,0,3.7,0,5.5,0.1c3.1,0,6.3,0,9.4-0.3c3.4-0.3,6.7-0.6,10.1-1c1.4-0.2,2.7-0.4,4.1-0.8c1.8-0.5,3.7-0.9,5.5-1.4
	c1.7-0.4,3.4-0.8,5.1-1.1c2.2-0.5,4.4-0.9,6.6-1.3c2.6-0.6,5.2-1.2,7.9-1.8c0.6-0.1,1.2-0.3,1.7-0.4c2.9-0.6,5.8-1.3,8.8-1.9
	c1.7-0.4,3.4-0.7,5.1-1c2.9-0.5,5.9-0.9,8.9-1.4c2.4-0.4,4.7-0.7,7.1-1.1c2.4-0.4,4.7-0.8,7.1-1.1c2.3-0.3,4.5-0.6,6.8-0.5
	c3.5,0.1,7,0.2,10.5,0.4c1.7,0.1,3.4,0.4,5,0.7c2.1,0.4,3.6,1.7,4.8,3.3c0.1,0.1,0.1,0.2,0.2,0.3c1,2.7,1.1,5.4-0.9,7.8
	c-0.9,1.1-2,1.9-3.6,1.7c-0.4-0.1-0.9-0.2-1.3-0.4c-0.9-0.4-1.7-1.1-2.2-1.9c-0.8-1.3-0.7-2.3,0-3.3c0.1-0.2,0.3-0.4,0.5-0.6
	c0.9-1.1,2.4-1.3,3.6-0.6c0.5,0.3,0.8,0.7,0.6,1.4C332.7,8.9,332.7,9.1,332.6,9.2z"/>
</svg>
