<?xml version="1.0" encoding="utf-8"?>
<!-- Generator: Adobe Illustrator 17.1.0, SVG Export Plug-In . SVG Version: 6.00 Build 0)  -->
<!DOCTYPE svg PUBLIC "-//W3C//DTD SVG 1.1//EN" "http://www.w3.org/Graphics/SVG/1.1/DTD/svg11.dtd">
<svg version="1.1" id="Layer_1" xmlns="http://www.w3.org/2000/svg" xmlns:xlink="http://www.w3.org/1999/xlink" x="0px" y="0px"
	 viewBox="0 0 361.9 20.2" enable-background="new 0 0 361.9 20.2" xml:space="preserve">
<g>
	<path fill-rule="evenodd" clip-rule="evenodd" fill="#B0AFB0" d="M58.6,5.8c0.5,0.3,0.9,0.5,1.2,0.8c0.3,0.3,0.6,0.6,1.1,1.1
		c0.4-0.4,0.9-0.7,1.1-1.2c0.2-0.6,0.3-1.2,0.4-1.7c-0.6-0.9-1.4-1-2.2-1.2c-0.3-0.1-0.8-0.1-1,0.1c-2.2,1.3-3.7,3-4,5.7
		c-0.2,1.8,1,3.4,2.3,3.8c1.3,0.4,2.6,0.8,3.9,0.9c3.1,0.3,6.2,0.6,9.4,0.5c1.1,0,2.2,0.2,3.2,0.2c4.8,0.1,9.5,0.2,14.3-0.3
		c1.4-0.2,2.9-0.1,4.3-0.1c1.5-0.1,3-0.2,4.6-0.2c7.2,0.1,14.4,0.2,21.6,0.3c0.7,0,1.4-0.1,2.1-0.2c4.4-0.2,8.8-0.3,13.2-0.5
		c0.4,0,0.7,0,1.1,0c5.1-0.3,10.2-0.6,15.4-0.9c3.4-0.2,6.8-0.2,10.2-0.4c4.3-0.3,8.6-0.2,12.9-0.2c8.1,0.1,16.2,0.2,24.3,0.2
		c5.4,0,10.8-0.1,16.2-0.1c3.5,0,7-0.1,10.5-0.1c1.6,0,3.2,0.2,4.8,0.3c8.1,0.6,16.2,0.4,24.3,0.8c3.4,0.1,6.8,0.2,10.2,0.4
		c3.8,0.2,7.5,0.3,11.3,0.6c6.5,0.5,13.1,1.1,19.6,1.3c3.6,0.1,7.2,0.1,10.8-0.6c0.9-0.2,1.8-0.4,2.6-0.7c2.1-0.8,3.1-2.5,3.1-4.8
		c0-2.4-1-4.1-3-5.3c-1.7-1-2.9-0.6-3.5,1.3c-0.1,0.3-0.2,0.7-0.2,1.1c-0.1,1.5,0.1,1.9,1.7,1.9c1.2,0.1,1.5,0.2,1.6,1
		c0.2,1.1-0.1,1.8-1.1,2.2c-1.8,0.8-3.5,0.1-4.2-1.6c-0.6-1.3-0.8-2.6-0.6-3.9c0.1-0.8,0.3-1.6,0.4-2.4c0.6-2.4,2.9-3.9,5.3-3.3
		c2.7,0.7,4.7,2.3,5.8,4.9c1,2.2,1,4.5,0.7,6.9c-0.1,0.5-0.4,1-0.6,1.5c-1.9,3.5-5.1,5.1-8.8,5.4c-4.7,0.4-9.5,0.4-14.3,0
		c-4-0.3-8.1-0.6-12.1-0.9c-2.3-0.2-4.7-0.5-7-0.6c-6.8-0.1-13.6-0.8-20.5-0.7c-4.1,0.1-8.3-0.3-12.4-0.5c-4-0.2-8.1-0.6-12.1-0.6
		c-4.5,0-8.9-0.5-13.4,0.1c-2.6,0.3-5.2,0.1-7.8,0c-7.5-0.2-14.9-0.1-22.4,0c-1.2,0-2.3,0-3.5,0c-6.3-0.3-12.6-0.1-18.8,0
		c-2.4,0.1-4.9,0-7.3,0.2c-4.8,0.2-9.7,0.6-14.5,0.8c-3.8,0.1-7.6,0.1-11.3,0.2c-1.3,0-2.7,0.2-4,0.3c-1.3,0.1-2.7,0.2-4,0.2
		c-5.8-0.1-11.7,0.1-17.5-0.1c-4.2-0.1-8.5-0.2-12.7,0.4c-0.4,0.1-0.9,0.1-1.3,0.1c-3.7-0.3-7.4,0.2-11,0.9c-4.5,0.8-9,0.5-13.4,0.1
		c-2.3-0.2-4.6-0.8-6.6-2.2c-0.7-0.5-1.6-0.8-2.3-1.3c-1.4-0.9-2.7-2-3-3.7C51.1,8.2,51.6,3.7,55,1.1c1.9-1.4,4-1.5,6.2-1.5
		c3.8,1.6,6.2,4.4,4.5,8.9c-0.8,2.2-2.5,3.1-4.6,3c-1.7-0.1-3.5-1.7-3.8-3.3C57.1,7.7,57.3,7.2,58.6,5.8z"/>
	<path fill-rule="evenodd" clip-rule="evenodd" fill="#B0AFB0" d="M294.8,11.4c-7.9-0.2-15.7-0.4-23.5-0.6c-1.5,0-3.1-0.1-4.6-0.2
		c-3.9-0.4-7.9-0.2-11.8-0.3c-2.9-0.1-5.7,0-8.6,0c-5.9,0-11.9-0.1-17.8-0.1c-1.9,0-3.8,0-5.7,0c-0.5,0-0.9,0-1.3-0.1
		c-4.7-0.8-9.5-0.6-14.3-0.5c-3.1,0-6.3,0.1-9.4,0c-7.6-0.1-15.1-0.2-22.7-0.3c-6.7-0.1-13.5,0-20.2-0.2c-6.1-0.1-12.2,0.1-18.3-0.4
		c-2.1-0.2-4.3-0.1-6.5,0c-2.2,0.1-4.5,0.3-6.7,0.3c-3.2,0-6.5,0-9.7-0.2c-3.4-0.2-6.8,0.1-10.2,0.6c-3.7,0.5-7.5,0.7-11.3,0.5
		c-2.5-0.2-5-0.1-7.5,0c-3.9,0.1-7.7,0.3-11.6,0.5c-1.3,0.1-2.1-0.6-2.3-1.8c-0.1-1,0.4-1.7,1.4-1.9c0.2,0,0.4-0.1,0.5-0.1
		c3.2,0.1,6.4,0.1,9.7,0.2c2.1,0,4.3-0.1,6.5-0.1c4.6,0.1,9.2,0.1,13.7-0.4c0.5-0.1,1.1-0.1,1.6-0.2c2.8-0.3,5.5-0.6,8.3-0.4
		c2.9,0.2,5.8,0.1,8.6,0.1c3.9,0,7.9-0.2,11.9-0.2c3.3,0,6.7,0.2,10,0.2c8.9,0.1,17.8,0.1,26.7,0.2c5.5,0.1,11,0.3,16.4,0.4
		c4,0.1,7.9,0,11.9,0c4.8,0,9.5,0,14.3,0c5.4,0,10.8,0.1,16.2,0c4.2-0.1,8.4-0.3,12.7-0.4c3.7-0.1,7.4-0.1,11.1,0
		c9,0.2,18,0.4,27,0.7c5.3,0.2,10.6,0.5,15.9,0.9c0.6,0,1.2,0.3,1.7,0.6c0.7,0.4,0.7,1.4,0.1,1.9C296.2,10.4,295.4,10.9,294.8,11.4z
		"/>
</g>
</svg>
